<svg width="19" height="25" viewBox="0 0 19 25" fill="none" xmlns="http://www.w3.org/2000/svg">
<path d="M2.6967 7.46966C2.6967 5.99108 3.8997 4.78808 5.37847 4.78808C6.85705 4.78808 8.06023 5.99108 8.06023 7.46966V9.63088C8.80508 9.40306 9.34873 8.70931 9.34873 7.89064V2.66042C9.34873 1.65716 8.53245 0.841064 7.52923 0.841064H3.2277C2.22448 0.841064 1.4082 1.65716 1.4082 2.66042V7.89059C1.4082 8.70922 1.95167 9.40302 2.6967 9.63083V7.46966ZM16.4452 0.841064H12.1435C11.1403 0.841064 10.3242 1.65716 10.3242 2.66042V7.89059C10.3242 8.89381 11.1403 9.70991 12.1435 9.70991H16.4452C17.4484 9.70991 18.2647 8.89381 18.2647 7.89059V2.66042C18.2647 1.65716 17.4485 0.841064 16.4452 0.841064Z" fill="white"/>
<path d="M13.1134 12.1447C12.4014 12.1447 11.8243 12.7218 11.8243 13.4337V12.7771C11.8243 12.0652 11.2472 11.4881 10.5351 11.4881C9.82323 11.4881 9.24606 12.065 9.24606 12.7771V12.2248C9.24606 11.5477 8.72402 10.9931 8.06064 10.9402C8.02616 10.9374 7.99159 10.9359 7.957 10.9358C7.43734 10.9358 6.98983 11.2436 6.78587 11.6865C6.70806 11.8553 6.66782 12.039 6.66794 12.2248V7.4696C6.66794 6.75771 6.09081 6.18054 5.37887 6.18054C4.66694 6.18054 4.08981 6.75771 4.08981 7.4696V18.5365L4.03398 18.5294L3.23983 15.1302C3.07778 14.4369 2.38436 14.0061 1.69112 14.1681C0.963109 14.1681 0.502937 14.7482 0.6685 15.4572L1.58931 19.3982C2.07091 22.4817 4.56353 24.841 4.56353 24.841H12.3953C13.7039 22.8506 14.4014 20.5207 14.4017 18.1386L14.4025 13.4337C14.4025 12.7218 13.8253 12.1447 13.1134 12.1447Z" fill="white"/>
</svg>
