<svg width="24" height="24" viewBox="0 0 24 24" fill="none" xmlns="http://www.w3.org/2000/svg">
<path d="M19.7574 5.3939L16.1976 8.9564H17.9104C18.1973 8.9564 18.4724 9.07037 18.6753 9.27323C18.8781 9.4761 18.9921 9.75124 18.9921 10.0381C18.9921 10.325 18.8781 10.6002 18.6753 10.803C18.4724 11.0059 18.1973 11.1199 17.9104 11.1199H13.5835C13.2966 11.1199 13.0214 11.0059 12.8186 10.803C12.6157 10.6002 12.5017 10.325 12.5017 10.0381V5.71121C12.5017 5.42432 12.6157 5.14917 12.8186 4.94631C13.0214 4.74344 13.2966 4.62948 13.5835 4.62948C13.8703 4.62948 14.1455 4.74344 14.3484 4.94631C14.5512 5.14917 14.6652 5.42432 14.6652 5.71121V7.42395L18.2268 3.86145C18.43 3.65823 18.7056 3.54407 18.993 3.54407C19.2804 3.54407 19.556 3.65823 19.7592 3.86145C19.9625 4.06466 20.0766 4.34028 20.0766 4.62767C20.0766 4.91506 19.9625 5.19068 19.7592 5.3939H19.7574ZM9.97769 12.5622H5.65076C5.36387 12.5622 5.08873 12.6761 4.88587 12.879C4.683 13.0819 4.56903 13.357 4.56903 13.6439C4.56903 13.9308 4.683 14.2059 4.88587 14.4088C5.08873 14.6117 5.36387 14.7256 5.65076 14.7256H7.3635L3.80371 18.2872C3.60049 18.4904 3.48633 18.7661 3.48633 19.0535C3.48633 19.3408 3.60049 19.6165 3.80371 19.8197C4.00692 20.0229 4.28254 20.1371 4.56994 20.1371C4.85733 20.1371 5.13295 20.0229 5.33616 19.8197L8.89596 16.2581V17.9708C8.89596 18.2577 9.00992 18.5329 9.21279 18.7357C9.41565 18.9386 9.6908 19.0526 9.97769 19.0526C10.2646 19.0526 10.5397 18.9386 10.7426 18.7357C10.9455 18.5329 11.0594 18.2577 11.0594 17.9708V13.6439C11.0594 13.357 10.9455 13.0819 10.7426 12.879C10.5397 12.6761 10.2646 12.5622 9.97769 12.5622Z" fill="white"/>
</svg>
