<svg width="14" height="22" viewBox="0 0 14 22" fill="none" xmlns="http://www.w3.org/2000/svg">
<path d="M7 8.85608V10.8561L8 11.8561M11.13 6.51608L10.32 2.46608C10.2286 2.00569 9.97809 1.59212 9.61245 1.29778C9.24682 1.00344 8.7893 0.847087 8.32 0.85608H5.64C5.1707 0.847087 4.71318 1.00344 4.34755 1.29778C3.98191 1.59212 3.73144 2.00569 3.64 2.46608L2.86 6.51608M2.88 15.2161L3.68 19.2161C3.77144 19.6765 4.02191 20.09 4.38755 20.3844C4.75318 20.6787 5.2107 20.8351 5.68 20.8261H8.4C8.8693 20.8351 9.32682 20.6787 9.69245 20.3844C10.0581 20.09 10.3086 19.6765 10.4 19.2161L11.21 15.1661M13 10.8561C13 14.1698 10.3137 16.8561 7 16.8561C3.68629 16.8561 1 14.1698 1 10.8561C1 7.54237 3.68629 4.85608 7 4.85608C10.3137 4.85608 13 7.54237 13 10.8561Z" stroke="white" stroke-width="1.5" stroke-linecap="round" stroke-linejoin="round"/>
</svg>
