<svg width="22" height="25" viewBox="0 0 22 25" fill="none" xmlns="http://www.w3.org/2000/svg">
<path d="M8.50781 9.37231C10.0611 9.37231 11.3203 8.11312 11.3203 6.55981C11.3203 5.00651 10.0611 3.74731 8.50781 3.74731C6.95451 3.74731 5.69531 5.00651 5.69531 6.55981C5.69531 8.11312 6.95451 9.37231 8.50781 9.37231Z" fill="white"/>
<path d="M16.0371 12.1848H9.88102C9.04884 11.34 7.68942 9.89455 6.97481 9.01096C6.43777 8.34692 5.64038 7.96606 4.78711 7.96606C3.2363 7.96606 1.97461 9.22775 1.97461 10.7786V19.9192C1.97433 20.1853 2.02466 20.449 2.12292 20.6963C1.22813 20.9405 0.568359 21.7605 0.568359 22.7317C0.568359 23.8445 1.43447 24.7588 2.52797 24.8358V24.8411H12.5215C14.46 24.8411 16.0371 23.264 16.0371 21.3254C16.0371 19.3869 14.46 17.8098 12.5215 17.8098H7.59961V15.8663C7.98689 16.2136 8.4818 16.4036 9.00586 16.4036H16.0371C17.2002 16.4036 18.1465 15.4573 18.1465 14.2942C18.1465 13.1311 17.2002 12.1848 16.0371 12.1848Z" fill="white"/>
<path d="M16.0371 5.05981C17.2021 5.05981 18.1465 4.11542 18.1465 2.95044C18.1465 1.78546 17.2021 0.841064 16.0371 0.841064C14.8721 0.841064 13.9277 1.78546 13.9277 2.95044C13.9277 4.11542 14.8721 5.05981 16.0371 5.05981Z" fill="white"/>
<path d="M20.959 9.37231H13.9277C13.5394 9.37231 13.2246 9.68713 13.2246 10.0754C13.2246 10.3162 13.249 10.5513 13.2953 10.7786H16.0371C17.6486 10.7786 19.0094 11.8688 19.4229 13.3502C20.732 12.8381 21.6621 11.5638 21.6621 10.0754C21.6621 9.68713 21.3473 9.37231 20.959 9.37231ZM19.4318 7.96606C19.1415 7.14767 18.36 6.55981 17.4434 6.55981C16.5267 6.55981 15.7452 7.14767 15.4549 7.96606H19.4318Z" fill="white"/>
</svg>
