<svg width="133" height="37" viewBox="0 0 133 37" fill="none" xmlns="http://www.w3.org/2000/svg">
<path fill-rule="evenodd" clip-rule="evenodd" d="M31.5517 9.26677L31.8029 9.71521C32.1191 10.2602 32.2861 10.8789 32.2872 11.5089V25.4104C32.282 26.0398 32.1152 26.6575 31.8029 27.2041L31.5338 27.6525C31.2266 28.2015 30.7733 28.6547 30.2245 28.962L18.1884 35.9216C17.6434 36.2377 17.0248 36.4048 16.3947 36.4059H15.8925C15.2615 36.4119 14.641 36.2443 14.0987 35.9216L2.04486 28.9799C1.50761 28.6574 1.05792 28.2077 0.735434 27.6705L0.48431 27.222C0.168157 26.677 0.00111999 26.0584 0 25.4283V11.5268C0.00111999 10.8968 0.168157 10.2781 0.48431 9.73314L0.735434 9.28471C1.04979 8.74116 1.50131 8.28957 2.04486 7.97528L14.0808 1.01556C14.6258 0.699424 15.2444 0.532387 15.8745 0.53125H16.3947C17.0248 0.532387 17.6434 0.699424 18.1884 1.01556L30.2245 7.95734C30.7711 8.27374 31.2279 8.72445 31.5517 9.26677ZM16.3947 4.11864H15.8745L5.38122 10.1815L16.1436 16.3877L26.906 10.1815L16.3947 4.11864ZM28.4306 25.8589L17.9373 31.9217V19.509L28.6997 13.2848V25.4104L28.4306 25.8589ZM79.0633 27.0787H75.3438V7.44812H79.0633V27.0787ZM45.5 27.4995H49.6586V20.3705H51.4667L55.8836 27.4995H60.3263L55.4445 19.6473C57.6142 19.0016 59.2415 17.5292 59.2415 14.7396V14.6363C59.2415 10.8135 56.4777 9.03125 52.1124 9.03125H45.5V27.4995ZM49.6586 17.5292V12.2342H52.0091C54.0239 12.2342 55.1604 12.8799 55.1604 14.7654V14.8688C55.1604 16.6511 54.1014 17.5292 52.0091 17.5292H49.6586ZM67.0806 27.3622C70.7742 27.3622 73.0989 25.7349 73.538 22.8161H69.9993C69.7668 23.9527 68.9145 24.7017 67.1839 24.7017C65.1433 24.7017 63.9294 23.4102 63.826 21.1631H73.5639V20.1299C73.5639 15.2996 70.4643 13.2592 66.9772 13.2592C63.0511 13.2592 60.029 16.0229 60.029 20.2848V20.4914C60.029 24.8051 62.9994 27.3622 67.0806 27.3622ZM63.8777 18.8642C64.1618 16.9528 65.2983 15.8421 66.9772 15.8421C68.7595 15.8421 69.7927 16.8236 69.9219 18.8642H63.8777ZM86.1985 27.3633C88.4201 27.3633 89.7886 26.3301 90.486 24.9611V27.0792H94.2056V13.5702H90.486V21.4999C90.486 23.4889 89.2461 24.4704 87.6711 24.4704C86.0698 24.4704 85.32 23.5921 85.32 21.7582V13.5702H81.6009V22.2748C81.6009 25.8135 83.5639 27.3633 86.1985 27.3633ZM100.491 27.0781H96.7448V13.5691H100.491V15.6355C101.162 14.3698 102.608 13.2592 104.623 13.2592C106.406 13.2592 107.749 14.0082 108.395 15.6097C109.479 13.9823 111.236 13.2592 112.94 13.2592C115.446 13.2592 117.383 14.8348 117.383 18.4251V27.0781H113.664V18.8384C113.664 17.1077 112.888 16.3328 111.545 16.3328C110.099 16.3328 108.937 17.2628 108.937 19.0967V27.0781H105.217V18.8384C105.217 17.1077 104.417 16.3328 103.099 16.3328C101.653 16.3328 100.491 17.2628 100.491 19.0967V27.0781ZM126.031 27.3622C129.726 27.3622 132.051 25.7349 132.489 22.8161H128.95C128.718 23.9527 127.865 24.7017 126.135 24.7017C124.094 24.7017 122.881 23.4102 122.777 21.1631H132.515V20.1299C132.515 15.2996 129.415 13.2592 125.928 13.2592C122.002 13.2592 118.98 16.0229 118.98 20.2848V20.4914C118.98 24.8051 121.95 27.3622 126.031 27.3622ZM122.829 18.8642C123.113 16.9528 124.25 15.8421 125.928 15.8421C127.711 15.8421 128.744 16.8236 128.873 18.8642H122.829Z" fill="#212121" fill-opacity="0.7"/>
</svg>
