<svg width="136" height="24" viewBox="0 0 136 24" fill="none" xmlns="http://www.w3.org/2000/svg">
<path fill-rule="evenodd" clip-rule="evenodd" d="M36.5702 0.78125L25.0607 23.2812H14.25L19.0667 13.9563H18.8506C14.8769 19.1147 8.94788 22.5106 0.5 23.2812V14.0854C0.5 14.0854 5.90431 13.7661 9.08135 10.4259H0.5V0.781427H10.1445V8.7139L10.361 8.71301L14.3021 0.781427H21.596V8.6636L21.8124 8.66325L25.9014 0.78125H36.5702Z" fill="#212121" fill-opacity="0.7"/>
<path d="M99.333 20.7978H102.439V2.96875H99.333V20.7978Z" fill="#212121" fill-opacity="0.7"/>
<path fill-rule="evenodd" clip-rule="evenodd" d="M82.2092 20.6157C82.8842 20.8963 83.5707 21.0367 84.2686 21.0367C85.4214 21.0367 86.4531 20.7561 87.3633 20.1947C88.2734 19.6334 88.9789 18.8598 89.4796 17.8737C89.9802 16.8801 90.2304 15.7536 90.2304 14.4944C90.2304 13.2353 89.9726 12.109 89.4568 11.1153C88.9409 10.1216 88.2242 9.35174 87.3063 8.80561C86.3886 8.25189 85.3456 7.97883 84.1774 7.98641C83.4342 7.98641 82.7212 8.13053 82.0384 8.41877C81.3558 8.70701 80.7869 9.11661 80.3318 9.64757C80.2967 9.68799 80.2626 9.72882 80.2294 9.77006V2.98019H77.1119V20.7978H80.2067L80.2004 19.1333C80.2804 19.2314 80.3661 19.3273 80.4569 19.4211C80.9499 19.9293 81.5341 20.3274 82.2092 20.6157ZM85.3949 17.7372C84.8867 18.0482 84.3064 18.2037 83.6541 18.2037C83.0093 18.2037 82.4177 18.0443 81.8792 17.7258C81.3406 17.3996 80.9121 16.9559 80.5934 16.3946C80.2824 15.8333 80.1269 15.1961 80.1269 14.4831C80.1194 13.7701 80.2711 13.1329 80.5821 12.5717C80.9007 12.0028 81.3292 11.5628 81.8678 11.2518C82.4063 10.9333 83.0018 10.7778 83.6541 10.7853C84.3064 10.7778 84.8867 10.9295 85.3949 11.2405C85.9107 11.5439 86.3051 11.98 86.5782 12.5489C86.8588 13.1102 86.9992 13.7549 86.9992 14.4831C86.9992 15.2113 86.8588 15.8561 86.5782 16.4173C86.3051 16.9787 85.9107 17.4186 85.3949 17.7372Z" fill="#212121" fill-opacity="0.7"/>
<path d="M41.0701 4.04968H44.6199L47.7954 15.6467L51.1736 4.04968H54.1318L57.7954 15.4139L60.8447 4.04968H64.0987L59.2973 20.7978H56.2367L52.5112 9.69578L49.0914 20.7978H45.9967L41.0701 4.04968Z" fill="#212121" fill-opacity="0.7"/>
<path fill-rule="evenodd" clip-rule="evenodd" d="M69.3413 21.0935C68.1048 21.1011 66.9898 20.828 65.9962 20.2744C65.01 19.713 64.2327 18.9355 63.6637 17.9419C63.1024 16.9483 62.8218 15.8143 62.8218 14.5399C62.8218 13.3035 63.11 12.1848 63.6865 11.1835C64.2629 10.1823 65.0442 9.40099 66.0303 8.83969C67.0164 8.27839 68.1162 7.99774 69.3298 7.99774C70.6952 7.99774 71.8898 8.30114 72.9138 8.90795C73.9454 9.51477 74.7153 10.3757 75.2235 11.4907C75.7393 12.5981 75.9252 13.8686 75.781 15.3023H66.0352C66.0624 15.8734 66.2049 16.393 66.4627 16.861C66.7509 17.3768 67.1529 17.7788 67.6686 18.067C68.1845 18.3553 68.7609 18.4994 69.3982 18.4994C69.8835 18.4918 70.3349 18.4084 70.752 18.2491C71.1693 18.0823 71.5219 17.8585 71.8102 17.5778C72.106 17.2971 72.3147 16.9786 72.436 16.6221H75.69C75.4928 17.4944 75.0984 18.2719 74.5068 18.9545C73.915 19.6296 73.1718 20.1568 72.2766 20.536C71.3817 20.9153 70.4032 21.1011 69.3413 21.0935ZM66.474 12.1734C66.2923 12.4904 66.1663 12.8316 66.0962 13.1974H72.5565C72.5097 12.7354 72.367 12.3144 72.1288 11.9344C71.8557 11.4869 71.484 11.1418 71.0138 10.8991C70.5435 10.6488 70.0125 10.5236 69.4209 10.5236C68.7913 10.5236 68.2187 10.6677 67.7028 10.956C67.187 11.2442 66.7774 11.65 66.474 12.1734Z" fill="#212121" fill-opacity="0.7"/>
<path d="M92.5178 8.25945C92.5178 7.24304 92.749 6.3404 93.2118 5.55154C93.6744 4.7551 94.323 4.1369 95.1574 3.69697C95.9993 3.24944 96.9816 3.01809 98.1041 3.00293V5.76772C97.5808 5.7753 97.1333 5.88529 96.7616 6.09768C96.3975 6.30248 96.1169 6.60209 95.9196 6.99652C95.7381 7.35964 95.6401 7.78062 95.6258 8.25945H98.0359V10.8877H95.6239V20.7978H92.5178V10.8877H90.5153V8.25945H92.5178Z" fill="#212121" fill-opacity="0.7"/>
<path fill-rule="evenodd" clip-rule="evenodd" d="M110.335 21.0707C109.068 21.0707 107.934 20.7938 106.933 20.2402C105.939 19.6788 105.158 18.9052 104.589 17.9191C104.028 16.9255 103.747 15.7991 103.747 14.5398C103.747 13.2732 104.028 12.143 104.589 11.1493C105.158 10.1481 105.939 9.3706 106.933 8.81688C107.934 8.26316 109.068 7.9863 110.335 7.9863C111.609 7.9863 112.747 8.26316 113.748 8.81688C114.757 9.3706 115.542 10.1443 116.103 11.1379C116.665 12.1316 116.949 13.2656 116.957 14.5398C116.949 15.7991 116.665 16.9255 116.103 17.9191C115.55 18.9052 114.768 19.6788 113.759 20.2402C112.751 20.7938 111.609 21.0707 110.335 21.0707ZM110.335 18.215C111.002 18.215 111.594 18.0632 112.11 17.7598C112.626 17.4488 113.024 17.0165 113.304 16.4627C113.585 15.9015 113.725 15.2605 113.725 14.5398C113.725 13.8117 113.585 13.167 113.304 12.6057C113.024 12.0444 112.626 11.612 112.11 11.3086C111.594 10.9976 111.002 10.8421 110.335 10.8421C109.675 10.8421 109.087 10.9976 108.571 11.3086C108.063 11.612 107.669 12.0444 107.388 12.6057C107.107 13.167 106.971 13.8117 106.978 14.5398C106.978 15.2605 107.119 15.9015 107.399 16.4627C107.688 17.0165 108.082 17.4488 108.583 17.7598C109.091 18.0632 109.675 18.215 110.335 18.215Z" fill="#212121" fill-opacity="0.7"/>
<path d="M120.313 8.25943H116.854L120.598 20.7978H123.624L126.086 12.7895L128.744 20.7978H131.725L135.48 8.25943H132.351L130.221 16.0638L127.867 8.25943H124.841L122.499 16.2356L120.313 8.25943Z" fill="#212121" fill-opacity="0.7"/>
</svg>
