<svg width="59" height="80" viewBox="0 0 59 80" fill="none" xmlns="http://www.w3.org/2000/svg">
<path d="M58.8581 39.4124C58.7674 38.1423 58.6024 35.9071 57.53 35.0411C56.8618 34.505 55.9379 34.6864 55.1625 34.8019C55.8637 30.0759 57.0268 22.3476 54.5685 18.067C53.6611 16.4834 52.2753 15.205 50.4852 14.7266C51.1286 12.8131 51.0461 11.0645 50.1965 9.21703C49.0003 6.61895 46.5586 3.9549 43.8281 2.95691C44.851 4.43327 45.5439 6.30554 46.2946 7.94686C45.3129 7.13857 44.323 6.39626 43.2094 5.78592C41.9555 5.0931 40.6274 4.63947 39.291 4.1446C36.8822 3.24558 34.4735 2.42079 32.0069 1.67849C27.2966 0.259855 18.8495 0.12789 14.4361 2.51152C14.1062 2.68473 13.5205 2.94041 13.405 3.30332C13.9494 3.77344 16.8861 3.66622 17.6368 3.68272C14.1391 4.62297 11.4582 7.06434 8.8679 9.47271C7.59752 10.6522 6.26115 11.8811 4.6608 12.5822C3.1347 13.2502 1.64984 13.4234 0 13.4729C0.0824921 13.7534 0.164984 14.075 0.321719 14.3142C1.03115 15.4359 2.615 15.8978 3.83588 16.137C3.72039 16.2607 3.60491 16.4009 3.50592 16.5329C1.65809 19.0072 0.956909 21.9847 1.41062 25.0034C2.29328 24.4673 3.27494 24.0962 4.18235 23.5848C4.01737 27.6015 4.62781 31.4615 5.22175 35.4122C4.58656 35.3545 3.81939 35.2225 3.23369 35.5442C2.57375 35.9071 2.21904 36.7814 2.02931 37.4659C1.78183 38.365 1.74883 39.297 1.69934 40.2207C1.64159 41.2765 1.5756 42.3487 1.64159 43.4126C1.82308 46.2169 2.77998 50.4316 4.1906 52.8564C4.75155 53.8214 5.47748 54.5143 6.54163 54.8359C6.59112 54.8524 6.64062 54.8689 6.69836 54.8772C6.91284 60.5517 9.56909 65.088 13.2482 69.2202H14.6094L16.7459 69.2449H17.5131L43.0444 69.4511H43.6548L45.1562 69.4676H46.6575C46.7648 69.3769 46.8638 69.2697 46.9628 69.1625C47.9032 68.1397 48.8188 67.018 49.685 65.8138C49.9737 65.1458 50.5842 64.5189 50.9471 63.9168C51.5081 62.9931 51.9783 62.0775 52.3578 61.1538C53.0177 59.5702 53.4384 57.9536 53.6529 56.2133C53.6529 56.1968 53.6529 56.1886 53.6529 56.1721C53.7271 55.5452 53.7766 54.9019 53.8014 54.2421C53.8179 54.2421 53.8261 54.2421 53.8426 54.2421C54.783 54.0936 55.4347 53.706 56.0699 52.9719C57.8847 50.8605 58.8499 45.9942 58.9819 43.2147C59.0396 41.9693 58.9489 40.6661 58.8581 39.4207V39.4124Z" fill="url(#paint0_linear_95_353)"/>
<path d="M9.6275 23.1308C9.66049 22.9824 9.69349 22.7597 9.76773 22.6277C10.04 22.1741 11.9208 21.5225 12.4735 21.0771C14.0491 19.7822 14.8245 17.1346 16.4083 16.1201C16.9693 15.7572 17.6292 15.584 18.2644 15.4026C22.0013 14.2974 25.2598 14.3468 28.7492 16.2439L29.3349 16.5408L29.8711 16.7552C30.036 16.7387 30.201 16.7387 30.3578 16.681C30.9105 16.4665 31.4302 16.2109 31.9251 15.8892C32.0324 15.9552 32.2221 16.1366 32.3458 16.0954C32.5356 16.0377 32.7088 15.8892 32.8655 15.7737L33.0058 15.8562L33.0883 16.2191L33.245 16.1449C34.7381 15.5345 36.4869 15.4438 38.0873 15.3861H38.541C41.024 15.4686 43.4575 16.0377 45.7178 17.0604C47.9946 18.1656 49.1742 20.1038 49.9909 22.438C50.5188 23.9474 50.6261 25.3165 50.5106 26.9083C50.4693 27.4857 50.3786 28.096 50.4364 28.6816C50.5683 29.9023 51.4675 30.9085 51.6407 32.1705C52.2264 36.3769 52.0779 40.542 52.3667 44.7567C52.7049 46.497 52.7791 48.361 52.8369 50.126C53.0019 55.3304 52.5564 59.7348 49.5619 64.1722C48.5473 65.6733 47.4089 67.1496 46.1798 68.4775C45.6518 69.0466 45.0744 69.558 44.5382 70.1189C43.9195 70.7622 43.309 71.5622 42.5584 72.0406C43.0451 70.9272 45.0826 66.3826 44.7774 65.4506L44.6866 65.4176C44.2659 66.1104 44.167 66.9682 43.837 67.7105C42.1046 71.5375 41.123 74.3665 37.1716 76.412C36.1322 76.9481 35.0846 77.41 33.9462 77.6821C29.7308 78.6801 25.466 77.9296 21.8116 75.6697C21.2011 75.2903 20.5165 74.8531 20.038 74.3088C18.5036 72.5685 16.9033 67.826 16.3589 65.4753C16.1856 64.7248 16.0454 63.966 15.8969 63.2154C15.8804 65.2609 16.7796 70.9107 17.9345 72.4118V72.486C14.6678 69.6817 10.7494 65.2279 9.09955 61.2194C8.22513 59.0915 7.74667 56.7161 7.57344 54.4397C7.49095 53.3757 7.23522 48.9878 7.79617 48.2208C7.82092 46.5052 7.9859 44.7897 8.01065 43.0659C8.06839 39.7667 8.0024 36.5006 8.34887 33.2097C8.5056 31.7416 9.19854 30.4137 9.35527 28.962C9.5615 27.0156 9.28928 25.1185 9.64399 23.1556L9.6275 23.1308Z" fill="#F8BC91"/>
<path d="M30.2661 78.6227C27.2221 78.6227 24.2029 77.7484 21.5219 76.0988C20.8455 75.6864 20.1443 75.2245 19.6246 74.6389C19.2369 74.2018 18.8574 73.5997 18.4945 72.9151L18.5522 73.7069L17.5788 72.8739C14.5431 70.2676 10.369 65.7065 8.59541 61.4094C7.76224 59.3887 7.22604 56.9885 7.02806 54.4647C6.92907 53.1615 6.65684 48.8479 7.35803 47.8911L8.1252 46.8354L8.31493 48.1303C8.33968 48.287 8.35618 48.4437 8.38093 48.6005C8.48817 49.3758 8.58716 50.1181 8.80164 50.8439C9.48632 53.1698 11.1279 55.0998 12.8273 56.9308C12.5633 55.7761 12.4725 54.6049 12.8932 53.2935L12.9262 53.1863L13.0005 53.1038C13.7347 52.2707 14.5761 51.9986 15.467 51.7099L15.6155 51.6604H15.665C16.6631 51.5367 17.785 51.3965 18.8904 51.1985C19.2616 51.1325 19.6329 51.0501 19.9958 50.9758C20.8702 50.7944 21.7694 50.6129 22.6933 50.5222L22.0169 50.283L24.5659 50.0933C24.6814 50.0933 24.7886 50.0851 24.9041 50.0851C26.1085 50.0851 26.9829 50.5717 27.7501 51.0006C28.41 51.3717 28.9792 51.6934 29.6969 51.6934C30.3568 51.6934 31.1158 51.413 31.9984 50.8356C33.0708 50.0356 33.7638 49.9036 35.0424 49.8294C35.2074 49.7799 35.3724 49.7057 35.5208 49.6067C36.0405 49.2603 36.2798 48.8231 36.42 47.9736L36.6427 46.6622L37.3852 47.7674C37.7894 48.3613 37.9626 48.7324 37.8059 49.5407C37.8059 49.5737 37.7894 49.6067 37.7811 49.6397V49.6892L37.6574 50.2418C37.8801 50.2665 38.0946 50.2995 38.3173 50.3243C39.3567 50.4645 40.4374 50.6047 41.485 50.6047C42.0047 50.6047 42.4832 50.5717 42.9451 50.4975C43.2421 50.4397 43.5143 50.4067 43.7701 50.4067C44.529 50.4067 45.1394 50.6707 45.8159 51.0583L45.8736 51.0913L46.0716 51.281C46.2861 51.479 46.5005 51.6851 46.7068 51.9078L46.7398 51.9491L46.7645 51.9903C47.4822 53.1945 47.6554 54.4317 47.2925 55.8916C47.3172 55.8586 47.3337 55.8338 47.3585 55.8008C47.5317 55.5616 47.7132 55.3142 47.9029 55.0668L47.9194 55.0503L47.9359 55.0338C50.7406 52.0398 51.8378 49.1448 51.8378 44.724L52.8937 44.625C53.2319 46.39 53.3144 48.2128 53.3721 50.0851C53.5371 55.4627 53.0339 59.9577 50.0065 64.4446C48.9341 66.0364 47.7792 67.5128 46.5748 68.8159C46.2778 69.1376 45.9643 69.4428 45.6591 69.7397C45.4116 69.9789 45.1642 70.2181 44.9332 70.4655C44.7765 70.6222 44.628 70.7954 44.4712 70.9686C43.9845 71.513 43.4731 72.0739 42.8544 72.4697L41.6088 73.2698C40.6353 74.6554 39.3732 75.8596 37.4264 76.8659C36.1478 77.5257 35.1166 77.9298 34.0772 78.1773C32.8233 78.4742 31.5447 78.6227 30.2826 78.6227H30.2661Z" fill="#4B2C1E"/>
<path d="M53.8926 50.0688C53.8349 48.2543 53.7524 46.3325 53.4059 44.5263L52.6305 44.5592L52.3582 44.7242C52.6965 46.4645 52.7707 48.3285 52.8285 50.0936C52.9934 55.298 52.548 59.7023 49.5535 64.1397C48.5389 65.6408 47.4005 67.1089 46.1713 68.445C45.8414 68.7997 45.4949 69.1379 45.1402 69.476C44.934 69.674 44.7277 69.8802 44.5297 70.0864C43.9111 70.7297 43.3006 71.5297 42.5499 72.0164C42.7479 71.571 43.1934 70.5647 43.6388 69.4678C44.2988 67.8347 44.9587 65.9872 44.769 65.4263L44.6782 65.3933C44.2575 66.0862 44.1585 66.9439 43.8286 67.6862C43.5481 68.3048 43.2841 68.8987 43.0366 69.4595C41.7003 72.404 40.4794 74.6639 37.1714 76.3877C36.132 76.9238 35.0844 77.3857 33.946 77.6579C32.7169 77.9466 31.4877 78.095 30.2669 78.095C27.2971 78.095 24.3934 77.2455 21.8032 75.6454C21.1927 75.266 20.508 74.8289 20.0296 74.2845C19.1387 73.2783 18.223 71.2493 17.5053 69.2616C16.9939 67.8347 16.5732 66.4326 16.3504 65.4511C16.1772 64.7005 16.037 63.9417 15.8885 63.1912C15.8802 64.4531 16.2184 67.0759 16.7464 69.2616C17.0764 70.6225 17.4806 71.8184 17.926 72.3875V72.4617C16.8619 71.5462 15.7152 70.441 14.6098 69.2368C12.3331 66.779 10.2048 63.884 9.09938 61.1952C8.22496 59.0672 7.74651 56.6918 7.57327 54.4154C7.49078 53.3515 7.23505 48.9636 7.796 48.1966L7.44128 45.5655L6.93808 47.5697C6.64111 47.9739 6.36889 48.6914 6.37714 51.1988C6.37714 52.5019 6.45963 53.8876 6.50912 54.4979C6.51737 54.6134 6.52562 54.7289 6.54212 54.8443C6.76485 57.2939 7.3093 59.6281 8.11772 61.5993C9.9243 65.9872 14.1644 70.6307 17.2496 73.27L19.2047 74.9444C19.2047 74.9444 19.2294 74.9773 19.2459 74.9938C19.8151 75.6372 20.5493 76.1155 21.2587 76.5527C24.014 78.26 27.1404 79.159 30.2834 79.159C31.595 79.159 32.9149 79.0023 34.2017 78.6971C35.2824 78.4414 36.3548 78.0208 37.6747 77.3362C39.6875 76.2888 40.9991 75.0598 41.9972 73.6494L43.1439 72.9154C43.8203 72.4782 44.3813 71.8597 44.868 71.3153C45.0247 71.1421 45.1732 70.9771 45.3217 70.8287C45.5444 70.5895 45.7836 70.3585 46.0394 70.1194C46.2456 69.9214 46.4601 69.7152 46.6663 69.4925C46.7735 69.3853 46.8725 69.2781 46.9715 69.1709C47.9119 68.1481 48.8276 67.0264 49.6938 65.8222C49.9495 65.4676 50.2052 65.1047 50.4527 64.7418C51.2529 63.5541 51.8798 62.3664 52.3747 61.1622C53.0264 59.5539 53.4306 57.9125 53.6699 56.2217C53.6699 56.2052 53.6699 56.197 53.6699 56.1805C53.7606 55.5454 53.8184 54.8938 53.8596 54.2422C53.9503 52.8978 53.9503 51.5122 53.9008 50.0688H53.8926Z" fill="url(#paint1_linear_95_353)"/>
<path d="M36.9323 48.0478C37.2787 48.5592 37.3942 48.7984 37.2705 49.4252C37.2622 49.4747 37.2457 49.5242 37.2375 49.5654C37.221 49.2355 37.287 48.7654 37.056 48.5345C36.9735 48.7654 36.957 48.9469 36.9405 49.186C36.6271 49.6809 36.0661 49.7634 36.0991 50.4315L36.2228 50.5799H36.6023C36.5858 50.3737 36.5198 50.2913 36.4126 50.1263L36.4786 50.0521C36.726 50.1098 36.8745 50.2748 37.0065 50.481C37.0725 50.5882 37.0725 50.5964 37.122 50.6954C35.5134 50.7614 34.0038 51.0501 32.5272 51.7099C31.7105 52.0233 30.9351 52.4852 30.1102 52.8069C28.0726 52.3945 26.365 51.2975 24.3027 50.9841C25.4411 50.6624 26.0351 51.413 27.0002 51.5449C27.0497 51.5449 27.091 51.5449 27.1405 51.5449L27.1652 51.6109L27.2642 51.6357C26.6703 51.2233 25.9691 50.8109 25.2349 50.7531C25.0617 50.7366 24.9132 50.7284 24.7482 50.6707C24.6987 50.6542 24.6492 50.6377 24.5915 50.6129C27.7262 50.382 28.3613 53.8213 32.288 51.2563C33.2779 50.5139 33.8801 50.415 35.1175 50.3407C35.3649 50.2748 35.5877 50.1675 35.8021 50.0273C36.5363 49.5325 36.792 48.8809 36.9323 48.0478Z" fill="#D08163"/>
<path d="M42.0223 53.7056C42.3936 53.7056 42.6493 53.821 42.9215 54.0767C43.0287 54.1757 43.0287 54.1839 43.103 54.2829L42.9875 54.3654L43.2927 54.7118L43.4824 54.6953C43.7959 55.017 43.8784 55.4294 43.9527 55.8582V55.9407C43.8454 57.2191 44.0351 58.5388 43.8042 59.8007C43.4 62.0029 40.3642 66.9599 38.8381 68.7331C37.675 69.129 36.7841 69.9868 35.6622 70.4899C35.2085 70.4075 33.5586 70.1518 33.3194 69.8878C33.3524 69.8878 33.3772 69.8878 33.4102 69.8796C33.9711 69.7971 34.3836 69.5002 34.7218 69.0466C35.225 68.3702 35.5137 67.397 35.7529 66.6052C31.9088 67.7599 28.1802 68.0981 24.3195 66.8196C24.633 67.8259 25.0537 69.2033 26.0766 69.7064C26.2663 69.8054 26.4726 69.8796 26.6788 69.9621C25.8456 70.5559 25.0702 70.7786 24.0556 70.8858C23.0904 70.3167 22.3892 69.7311 21.589 68.9476C21.3828 69.0301 21.4158 69.2445 21.1766 69.0961C19.766 68.23 16.986 62.2916 16.425 60.5265C16.2848 60.0976 16.2188 59.6358 16.1693 59.1821C16.0703 58.2254 16.0868 57.2604 16.0703 56.3036C16.2105 56.0974 16.3425 55.817 16.5818 55.7263C16.5818 55.7263 16.5818 55.7098 16.5983 55.7015C16.7715 55.4871 17.0107 55.5201 17.2747 55.4788C17.0437 55.4623 16.8045 55.4623 16.5735 55.4541L16.524 55.3386L16.755 54.9592C19.4195 55.2232 21.6715 55.0747 24.3113 54.9592L29.8712 54.7448C31.2571 54.6953 32.643 54.8355 34.0206 54.786C36.0004 54.7118 37.9472 54.3819 39.9023 54.1015C40.5292 54.0107 41.4366 54.0025 42.0058 53.7303L42.0223 53.7056Z" fill="#060404"/>
<path d="M43.2927 54.7122L43.4824 54.6957C43.7959 55.0173 43.8784 55.4297 43.9527 55.8586V55.9411C43.8454 57.2195 44.0351 58.5392 43.8042 59.8011C43.4 62.0033 40.3642 66.9602 38.8381 68.7335C37.675 69.1294 36.7841 69.9872 35.6622 70.4903C35.2085 70.4078 33.5586 70.1522 33.3194 69.8882C33.3524 69.8882 33.3772 69.8882 33.4102 69.88C33.9711 69.7975 34.3836 69.5006 34.7218 69.0469C35.225 68.3706 35.5137 67.3974 35.7529 66.6056C31.9088 67.7603 28.1802 68.0984 24.3195 66.82C24.633 67.8263 25.0537 69.2036 26.0766 69.7068C26.2663 69.8057 26.4726 69.88 26.6788 69.9624C25.8456 70.5563 25.0702 70.779 24.0556 70.8862C23.0904 70.3171 22.3892 69.7315 21.589 68.948C21.3828 69.0304 21.4158 69.2449 21.1766 69.0964C19.766 68.2304 16.986 62.2919 16.425 60.5269C16.2848 60.098 16.2188 59.6361 16.1693 59.1825C16.0703 58.2257 16.0868 57.2608 16.0703 56.304C16.2105 56.0978 16.3425 55.8174 16.5818 55.7266C16.9942 56.1803 17.6872 56.2628 18.1326 56.7411C19.2463 57.9206 19.9804 59.5124 21.0446 60.7661C23.0079 63.092 25.5899 64.5189 28.6421 64.7663C34.0371 65.2034 37.576 62.894 40.488 58.5144C41.3212 57.269 42.0141 55.7844 43.1772 54.8111L43.2845 54.7287L43.2927 54.7122Z" fill="#F8BC91"/>
<path d="M31.8498 66.3335C32.1138 66.2923 32.1633 66.2923 32.4025 66.3913L32.3613 66.5067C31.2806 67.1171 30.101 66.8037 28.9543 67.0016C28.8471 67.0181 28.7481 67.0429 28.6326 67.0429C28.4594 67.0429 28.4511 67.0676 28.3191 66.9521C28.6409 66.7624 29.0946 66.7459 29.4658 66.6964L28.6739 66.6552C28.1459 66.7129 27.0488 66.614 26.5703 66.4078C28.3274 66.515 30.1092 66.5892 31.8581 66.3335H31.8498Z" fill="#E8AE8A"/>
<path d="M34.3835 56.8403C34.3835 56.7249 34.3835 56.5764 34.4165 56.4609C34.4825 56.2052 34.796 56.098 35.0105 55.9825C35.6209 56.1475 36.2396 56.3042 36.8583 56.4362C37.0068 56.931 36.9243 57.4589 36.8583 57.9703C36.7428 58.2177 36.6356 58.2837 36.3716 58.3579C35.4477 58.6384 34.631 58.127 34.1855 58.2177C33.8886 58.2754 33.5834 58.6713 33.2369 58.7373C32.412 58.9023 28.1306 58.993 27.2975 58.9105C26.7283 58.8528 26.1591 58.6219 25.6311 58.4239L25.4826 58.6796C24.8887 58.7868 24.1628 58.6631 23.5771 58.5476C23.4121 58.3909 23.2883 58.2342 23.1646 58.0528L23.0904 58.4074C22.7769 58.5806 22.2984 58.4569 21.9685 58.3579C21.7787 58.3002 21.6962 58.2177 21.556 58.0857C21.3415 58.2589 21.1518 58.2672 20.8878 58.2589C20.6898 58.16 20.5908 58.0528 20.4754 57.8713C20.2279 57.4507 20.0959 56.8651 20.2279 56.3867C20.5826 56.23 21.259 56.3372 21.655 56.329C21.9685 56.3042 22.3727 56.2135 22.6449 56.4197C22.7356 56.4939 22.8099 56.6094 22.8841 56.7001C22.8924 56.7084 22.9089 56.7248 22.9171 56.7331C23.1151 56.5599 23.0079 56.4444 23.1646 56.23C23.7833 56.2465 24.9794 56.1392 25.4744 56.4939L25.5239 56.6589C25.6229 56.7743 25.7301 56.8816 25.8373 56.997L25.9116 56.9475C25.9033 56.7826 25.8951 56.6506 25.9363 56.4939C27.2397 56.4362 28.5348 56.5516 29.83 56.5516C30.8776 56.5516 31.9418 56.4114 32.9812 56.296C33.3441 56.296 33.7153 56.296 34.0866 56.296C34.1278 56.6011 34.1361 56.8981 34.2763 57.1785C34.3835 57.03 34.3753 57.0135 34.4 56.8403H34.3835Z" fill="white"/>
<path d="M34.3828 56.8403C34.3828 56.7249 34.3828 56.5764 34.4158 56.4609C34.4818 56.2052 34.7953 56.098 35.0098 55.9825C35.6202 56.1475 36.2389 56.3042 36.8576 56.4362C36.0162 56.5104 35.2242 56.7661 34.3828 56.8403Z" fill="#DBDBDC"/>
<path d="M23.1474 56.2296C23.7661 56.2461 24.9623 56.1389 25.4572 56.4936L25.5067 56.6585C25.0695 56.675 23.1804 56.7905 22.9082 56.7327C23.1062 56.5595 22.9989 56.4441 23.1557 56.2296H23.1474Z" fill="#DBDBDC"/>
<path d="M42.0213 53.7056C42.3925 53.7056 42.6483 53.821 42.9205 54.0767C43.0277 54.1757 43.0277 54.1839 43.102 54.2829L42.9865 54.3654C41.9141 54.3324 40.8747 54.9262 39.8188 55.0994C38.4907 55.3221 37.1213 55.3056 35.7767 55.4211C34.828 55.5036 33.8298 55.7345 32.8812 55.7593C32.6997 55.8665 32.5347 55.8995 32.477 56.1057C32.6337 56.1882 32.7904 56.2376 32.9637 56.2954C31.9243 56.4108 30.8601 56.5511 29.8125 56.5511C28.5091 56.5511 27.2222 56.4438 25.9189 56.4933C25.8776 56.65 25.8859 56.782 25.8941 56.947L25.8199 56.9964C25.7126 56.8892 25.6054 56.782 25.5064 56.6583L25.4569 56.4933C24.9619 56.1387 23.7658 56.2459 23.1471 56.2294C23.6173 56.1552 24.0875 56.1634 24.5577 56.1634C24.137 55.3469 21.8272 56.2376 21.0931 55.784C19.8144 55.751 18.5441 55.6438 17.2819 55.4541C17.051 55.4376 16.8117 55.4376 16.5807 55.4294L16.5312 55.3139L16.7622 54.9345C19.4267 55.1984 21.6788 55.0499 24.3185 54.9345L29.8785 54.72C31.2643 54.6706 32.6502 54.8108 34.0278 54.7613C36.0076 54.687 37.9545 54.3571 39.9095 54.0767C40.5365 53.986 41.4439 53.9777 42.0131 53.7056H42.0213Z" fill="#D08163"/>
<path d="M21.0938 55.7928C22.3559 55.768 23.6263 55.735 24.8966 55.7763C27.5776 55.867 30.2091 56.0649 32.8901 55.768C32.7086 55.8752 32.5437 55.9082 32.4859 56.1144C32.6426 56.1969 32.7994 56.2464 32.9726 56.3041C31.9332 56.4196 30.8691 56.5598 29.8214 56.5598C28.518 56.5598 27.2312 56.4526 25.9278 56.5021C25.8865 56.6588 25.8948 56.7908 25.903 56.9557L25.8288 57.0052C25.7216 56.898 25.6143 56.7908 25.5153 56.667L25.4658 56.5021C24.9709 56.1474 23.7747 56.2546 23.1561 56.2381C23.6263 56.1639 24.0965 56.1722 24.5667 56.1722C24.146 55.3556 21.8362 56.2464 21.102 55.7928H21.0938Z" fill="#2B1107"/>
<path d="M38.6151 56.1641L38.7058 56.1228L38.7553 55.8754C39.0523 55.7022 39.5225 55.7682 39.869 55.7764C39.869 56.1723 39.968 56.9146 39.6627 57.2115C39.374 57.492 38.7471 57.492 38.3676 57.5992C38.1696 57.8631 37.9882 57.9868 37.6582 58.0363C37.4107 58.0776 37.2457 58.0611 37.0312 57.9209C37.122 57.558 37.1797 57.2363 37.1962 56.8651C37.1962 56.7002 37.2127 56.6342 37.2952 56.494C37.6912 56.2713 38.1696 56.2383 38.6068 56.1641H38.6151Z" fill="#DBDBDC"/>
<path d="M37.1958 56.8646C37.567 56.8399 38.1362 56.6997 38.4497 56.8646C38.5157 57.1533 38.4084 57.3183 38.3754 57.5904C38.1775 57.8544 37.996 57.9781 37.666 58.0276C37.4185 58.0688 37.2535 58.0523 37.0391 57.9121C37.1298 57.5492 37.1875 57.2275 37.204 56.8564L37.1958 56.8646Z" fill="white"/>
<path d="M35.0098 55.9824C35.9502 55.8752 37.5588 55.5453 38.4579 55.867C38.5157 55.9659 38.5652 56.0567 38.6064 56.1639C38.161 56.2381 37.6908 56.2794 37.2948 56.4938C37.2041 56.634 37.1876 56.7 37.1958 56.865C37.1793 57.2361 37.1216 57.566 37.0308 57.9207L36.9071 57.9042L36.8576 57.9702C36.9318 57.467 37.0061 56.9392 36.8576 56.4361C36.2389 56.3041 35.6202 56.1474 35.0098 55.9824Z" fill="#C5C4C4"/>
<path d="M29.9862 61.8794C30.7863 61.4835 31.57 61.2113 32.4774 61.1866C33.8138 61.1536 35.1007 61.5412 36.0823 62.4732C35.2079 63.1743 34.2922 63.529 33.2198 63.8424C29.8789 64.8404 26.8927 64.2548 23.8652 62.7289C24.8386 61.7722 25.7296 61.368 27.0742 61.2031C28.0476 61.1288 29.1695 61.3103 29.9779 61.8876L29.9862 61.8794Z" fill="#F95B59"/>
<path d="M42.0215 53.7059C42.1617 53.4997 42.2525 53.2606 42.5247 53.2193C42.8794 53.1616 43.2671 53.409 43.4981 53.6565C43.8281 54.0029 44.2075 54.6957 44.191 55.1823C44.1828 55.438 44.092 55.6442 43.9518 55.8586C43.8693 55.4297 43.7951 55.0173 43.4816 54.6957L43.2919 54.7122L42.9866 54.3658L43.1021 54.2833C43.0279 54.1843 43.0279 54.1761 42.9206 54.0771C42.6402 53.8297 42.3927 53.7142 42.0215 53.7059Z" fill="#2B1107"/>
<path d="M16.0776 56.2958C15.9291 56.2381 15.8796 56.2133 15.7559 56.1226C15.7559 55.9082 15.7971 55.7267 15.8961 55.537C16.0281 55.2813 16.3003 54.9267 16.589 54.8277L16.754 54.9432L16.523 55.3226L16.5725 55.438C16.8035 55.438 17.0427 55.438 17.2737 55.4628C17.0097 55.504 16.7705 55.4793 16.5973 55.6855C16.5973 55.6855 16.589 55.702 16.5808 55.7102C16.3416 55.8009 16.2096 56.0814 16.0693 56.2876L16.0776 56.2958Z" fill="#3C2116"/>
<path d="M45.6995 17.0357C47.9763 18.1409 49.1559 20.0792 49.9726 22.4133C50.5005 23.9227 50.6078 25.2918 50.4923 26.8836C50.451 27.461 50.3603 28.0713 50.418 28.6569C50.55 29.8776 51.4492 30.8839 51.6224 32.1458C52.2081 36.3522 52.0596 40.5174 52.3484 44.732C52.3484 49.1116 51.3337 52.1716 48.3062 55.4047C48.3557 54.3737 48.9909 53.4417 49.3209 52.485C49.7334 51.2891 50.6573 47.6353 50.781 46.4228C51.1357 42.901 49.1642 41.87 47.2091 39.5029C46.4337 39.4534 45.6417 39.4534 44.8828 39.2967L45.0808 38.9338L45.1138 39.008C45.4355 38.843 45.8232 38.7853 46.1697 38.7028V38.6286L45.7902 38.5131C46.046 38.4966 46.2109 38.4884 46.4254 38.3317C47.3081 37.6718 47.2091 34.7768 47.2916 33.7376C47.7453 34.2407 48.199 34.7439 48.6692 35.2305C48.5372 32.4839 47.4401 30.4302 45.683 28.3848C46.6811 26.6197 45.7902 19.3369 45.7077 17.044L45.6995 17.0357Z" fill="#EA9167"/>
<path d="M35.1914 37.2762C35.4307 36.3937 35.9339 35.5277 36.6433 34.9421C37.8972 33.9028 39.382 34.0266 40.8999 34.1503C41.5516 34.0348 42.0878 34.3647 42.7147 34.274C43.7624 34.9008 44.3563 35.5524 45.0822 36.5174C44.9585 36.6411 44.8348 36.7814 44.7028 36.8886L45.5689 38.2495C45.6432 38.3732 45.6762 38.4309 45.7917 38.5216L46.1711 38.6371V38.7113C45.8247 38.7938 45.437 38.8516 45.1152 39.0165L45.0822 38.9423L44.8843 39.3052H44.843C44.1748 39.7258 41.7166 40.6496 40.9576 40.5094C40.8669 40.4929 40.8339 40.4681 40.7597 40.4352C39.91 40.7486 39.2418 40.6991 38.3674 40.6743L37.9879 40.8475C37.3197 40.7321 36.6021 40.7321 35.9256 40.6826C35.7936 40.6249 35.6699 40.5589 35.5379 40.4929C34.977 39.7506 35.1337 38.9835 35.2079 38.1175L35.1172 38.0845C35.043 37.8041 35.1254 37.5566 35.1914 37.2845V37.2762Z" fill="#C5C4C4"/>
<path d="M37.4428 36.7239C37.7975 36.262 38.2512 35.9238 38.8369 35.8331C39.5216 35.7259 40.3465 35.9733 40.9405 36.3115C41.1632 36.4352 41.3529 36.6331 41.5839 36.7321L41.6417 37.0785C41.9716 37.5074 42.0459 38.0848 41.9634 38.6044C41.8644 39.2477 41.5097 39.9158 40.9652 40.2869C40.8992 40.3364 40.825 40.3694 40.7507 40.4107C39.9011 40.7241 39.2329 40.6746 38.3585 40.6498L37.979 40.823C37.3108 40.7076 36.5931 40.7076 35.9167 40.6581C35.7847 40.6004 35.661 40.5344 35.529 40.4684C34.9681 39.7261 35.1248 38.959 35.199 38.093L35.4218 37.26C36.2054 37.3589 36.5931 36.5012 37.2943 36.5094L37.3686 36.7074H37.4346L37.4428 36.7239Z" fill="#643A28"/>
<path d="M35.43 37.2681C36.2137 37.3671 36.6014 36.5093 37.3026 36.5176L37.3768 36.7155C36.9396 37.4496 36.6591 38.0847 36.8571 38.9589C37.0056 39.5775 37.3851 40.1136 37.913 40.4518C38.0533 40.5425 38.2017 40.6003 38.3585 40.6498L37.979 40.823C37.3108 40.7075 36.5931 40.7075 35.9167 40.658C35.7847 40.6003 35.661 40.5343 35.529 40.4683C34.9681 39.726 35.1248 38.9589 35.199 38.0929L35.4218 37.2599L35.43 37.2681Z" fill="white"/>
<path d="M37.4423 36.7239C37.797 36.262 38.2507 35.9238 38.8364 35.8331C39.5211 35.7259 40.346 35.9733 40.9399 36.3115C41.1627 36.4352 41.3524 36.6331 41.5834 36.7321L41.6411 37.0785L41.4926 37.1033L41.4184 37.029C41.4184 37.029 41.3442 37.062 41.3112 37.0703C41.1627 37.128 41.0224 37.1692 40.8657 37.2022L40.643 37.4249L40.7007 37.8621C40.7007 37.8621 40.6595 37.8043 40.6347 37.7713L40.5357 37.6394C40.4285 37.4992 40.3295 37.3425 40.1893 37.2352C39.884 36.996 39.5458 37.0125 39.1911 37.0703C39.0921 37.3589 39.0014 37.6064 38.7044 37.7548C38.5394 37.8373 38.3662 37.8703 38.1847 37.8951C38.028 37.7796 37.797 37.6476 37.6733 37.4992C37.4918 37.293 37.5495 37.1115 37.566 36.8558L37.4258 36.7239H37.4423Z" fill="#3C2116"/>
<path d="M37.5828 36.8637C37.8551 36.6658 38.152 36.4101 38.515 36.4678C38.8532 36.5173 39.0265 36.8143 39.1997 37.0782C39.1007 37.3669 39.01 37.6143 38.713 37.7628C38.548 37.8452 38.3748 37.8782 38.1933 37.903C38.0366 37.7875 37.8056 37.6555 37.6818 37.5071C37.5004 37.3009 37.5581 37.1194 37.5746 36.8637H37.5828Z" fill="white"/>
<path d="M39.2012 37.07C39.5641 37.0123 39.8941 36.9958 40.1993 37.235C40.3395 37.3422 40.4385 37.4989 40.5458 37.6391L40.6448 37.7711C40.6448 37.7711 40.686 37.8288 40.7108 37.8618C40.8015 38.2082 40.7108 38.6536 40.521 38.9588C40.3313 39.2722 39.9931 39.4619 39.6384 39.5279C39.2094 39.6104 38.698 39.5279 38.3515 39.2557C38.1618 39.1072 38.038 38.9093 38.0133 38.6701C37.9803 38.3732 38.0133 38.1257 38.1948 37.8948C38.3762 37.8701 38.5495 37.8371 38.7145 37.7546C39.0114 37.6144 39.1022 37.3587 39.2012 37.07Z" fill="#060404"/>
<path d="M35.1914 37.2762C35.4307 36.3937 35.9339 35.5277 36.6433 34.9421C37.8972 33.9028 39.382 34.0266 40.8999 34.1503C41.5516 34.0348 42.0878 34.3647 42.7147 34.274C43.7624 34.9008 44.3563 35.5524 45.0822 36.5174C44.9585 36.6411 44.8348 36.7814 44.7028 36.8886L45.5689 38.2495C45.6432 38.3732 45.6762 38.4309 45.7917 38.5216L46.1711 38.6371V38.7113C45.8247 38.7938 45.437 38.8516 45.1152 39.0165L45.0822 38.9423C44.5955 37.5731 43.4489 36.2287 42.195 35.5029C41.0236 34.8349 39.4563 34.5049 38.1529 34.9008C36.965 35.2555 36.0164 36.2205 35.4307 37.2845L35.2079 38.1175L35.1172 38.0845C35.043 37.8041 35.1254 37.5566 35.1914 37.2845V37.2762Z" fill="#060404"/>
<path d="M40.9004 34.1419C41.5521 34.0264 42.0883 34.3563 42.7152 34.2656C43.7629 34.8924 44.3568 35.544 45.0827 36.509C44.959 36.6327 44.8353 36.7729 44.7033 36.8802C43.6226 35.5523 42.5667 34.6203 40.9004 34.1419Z" fill="#D08163"/>
<path d="M41.5842 36.7315C41.7987 36.6325 41.5183 36.748 41.7492 36.6985C41.7987 36.6902 41.8482 36.6655 41.8977 36.649C42.7309 36.8634 44.2652 38.0841 44.6777 38.8429C44.7519 38.9831 44.8014 39.1398 44.8509 39.2883C44.1828 39.7089 41.7245 40.6327 40.9656 40.4925C40.8748 40.476 40.8418 40.4512 40.7676 40.4183C40.8418 40.377 40.9078 40.3358 40.9821 40.2945C41.5265 39.9234 41.8812 39.2471 41.9802 38.612C42.0627 38.0924 41.9802 37.5068 41.6585 37.0861L41.6007 36.7397L41.5842 36.7315Z" fill="white"/>
<path d="M34.5318 29.8203C34.2349 28.9955 33.9874 27.3707 34.3669 26.5459C34.5071 26.2407 34.7463 26.1582 35.0433 26.0428C35.002 26.249 34.9773 26.4387 34.9608 26.6449C35.1918 26.7026 35.3155 26.3232 35.5217 26.2077C35.6702 26.1253 35.9507 26.1335 36.1239 26.117C36.6601 26.0593 37.2458 25.9768 37.782 26.0098C40.0918 26.1418 43.9029 26.9418 45.6765 28.3852C47.4419 30.4306 48.5308 32.4844 48.6627 35.2309C48.1925 34.7443 47.7388 34.2411 47.2851 33.738C46.9964 33.3834 46.6912 33.0452 46.3612 32.7318C42.8553 29.3337 38.9947 29.7296 34.5236 29.8203H34.5318Z" fill="#3C2116"/>
<path d="M25.3748 48.3777C26.175 48.6911 26.8762 49.2108 27.6599 49.5654C28.7488 50.0685 30.1181 50.0273 31.2153 49.6066C32.0155 49.3015 32.7579 48.7736 33.1044 47.9653C33.7643 46.423 32.9559 45.26 32.4197 43.8909C32.9311 44.4105 33.2776 44.9549 33.5828 45.6147C33.8303 46.1508 34.0118 47.5117 34.449 47.7921C34.8944 47.6024 35.1089 46.8684 35.2821 46.4477L34.9522 46.225L34.9852 46.1343C35.4306 46.1096 35.8678 46.3817 36.1978 46.6787C36.6185 47.0581 36.8165 47.5034 36.9402 48.0396C36.8 48.8726 36.5443 49.5324 35.8101 50.019C35.6039 50.1593 35.3729 50.2665 35.1254 50.3325C33.888 50.4067 33.2858 50.5057 32.2959 51.248C28.3693 53.8131 27.7259 50.382 24.5994 50.6046C24.4179 50.5387 24.1952 50.5222 24.0055 50.4644C23.2053 50.2087 22.9001 49.7634 22.5371 49.054C22.6361 48.8973 22.7103 48.7654 22.8671 48.6664L23.1558 48.9221C23.3043 49.087 23.4528 49.2437 23.5848 49.4169C24.154 48.9633 24.7232 48.6746 25.3748 48.3695V48.3777Z" fill="#EA9167"/>
<path d="M22.5293 49.0707C22.6283 48.914 22.7025 48.782 22.8593 48.683L23.148 48.9387C23.2965 49.1037 23.445 49.2604 23.5769 49.4336C23.8162 49.615 24.0801 49.8954 24.4019 49.846C25.6557 49.681 25.6557 49.4253 26.8189 50.2666C27.817 50.9842 28.8069 51.7925 30.1268 51.6028C31.7272 51.3718 33.5832 48.9305 34.7051 49.6315C34.8371 49.714 34.9609 49.8295 35.0763 49.9367L35.1176 50.3326C33.8802 50.4068 33.278 50.5058 32.2881 51.2481C28.3615 53.8132 27.7181 50.3821 24.5916 50.6048C24.4101 50.5388 24.1874 50.5223 23.9977 50.4646C23.1975 50.2089 22.8923 49.7635 22.5293 49.0542V49.0707Z" fill="#2B1107"/>
<path d="M35.2811 46.4556L34.9512 46.2329L34.9842 46.1422C35.4296 46.1175 35.8668 46.3897 36.1968 46.6866C36.6175 47.066 36.8155 47.5114 36.9392 48.0475C36.799 48.8805 36.5433 49.5403 35.8091 50.027C35.6029 50.1672 35.3719 50.2744 35.1244 50.3404L35.0832 49.9445C35.4544 49.6806 35.8503 49.3919 36.0896 48.996C36.3205 48.6166 36.469 48.1217 36.3535 47.6763C36.2133 47.1402 35.7431 46.7278 35.2811 46.4556Z" fill="#643A28"/>
<path d="M9.62695 23.1308C9.65995 22.9823 9.69295 22.7597 9.76719 22.6277C10.0394 22.1741 11.9202 21.5225 12.4729 21.0771C14.0485 19.7822 14.824 17.1346 16.4078 16.1201C16.9688 15.7572 17.6287 15.584 18.2639 15.4026C22.0008 14.2974 25.2592 14.3468 28.7486 16.2439C28.5919 16.3098 28.4187 16.3841 28.2454 16.3923C27.3463 16.4088 25.4902 15.5345 24.0961 15.4933C22.7927 15.4521 21.3243 15.8067 20.0952 16.1861C15.9706 17.4645 15.2777 21.2421 12.3987 22.5947C11.549 22.9906 10.5344 22.8916 9.6352 23.1473L9.62695 23.1308Z" fill="#EA9167"/>
<path d="M35.1915 37.2762C34.6553 36.8473 34.6223 37.1195 34.0201 37.07C33.9706 36.9958 33.9293 36.9463 33.9046 36.8638C33.6819 36.0968 34.6965 34.4554 35.1255 33.8368C35.9092 32.6986 35.6534 33.1853 36.4371 33.2347C36.6598 33.2512 37.4435 32.8883 37.79 32.8389C39.6048 32.5337 41.2629 33.243 42.723 34.274C42.0961 34.373 41.5599 34.0348 40.9082 34.1503C39.3986 34.0265 37.9137 33.9028 36.6516 34.9421C35.9504 35.5277 35.439 36.4019 35.1997 37.2762H35.1915Z" fill="#EA9167"/>
<path d="M13.3965 53.4419C13.4377 53.079 13.4955 52.8069 13.677 52.4852C14.8153 50.448 18.6265 48.6417 20.7795 48.0478C19.8886 49.252 18.6347 50.6624 17.2406 51.2975C16.6879 51.5449 16.1022 51.7016 15.566 51.9738L15.533 52.114L15.731 52.1718C14.8071 52.4687 14.0564 52.6914 13.3965 53.4419Z" fill="#EA9167"/>
<path d="M35.9247 40.6659C36.6012 40.7071 37.3188 40.7154 37.987 40.8308C39.7276 41.268 42.2601 41.136 44.0832 41.07C42.5158 42.1093 40.569 42.8103 38.6635 42.4392C37.7561 42.266 36.3537 41.5484 35.834 40.7649L35.9247 40.6659Z" fill="#EA9167"/>
<path d="M43.0282 51.0173C41.5846 50.2585 40.2153 49.1945 38.9531 48.1636C39.778 48.477 40.5617 48.8811 41.3866 49.178C42.756 49.6729 44.3234 49.9039 45.5277 50.7534L45.6927 51.1575L45.536 51.5204C44.6533 51.0091 44.0346 50.8111 43.02 51.0173H43.0282Z" fill="#EA9167"/>
<path d="M23.7758 45.7964C23.6108 46.0438 23.4376 46.2995 23.2974 46.5634C22.8602 47.38 22.9262 48.0893 23.1571 48.9471L22.8684 48.6914C22.7117 48.7986 22.6374 48.9223 22.5384 49.079C22.4312 48.7409 22.3652 48.4274 22.39 48.0728C22.4477 47.0748 23.0829 46.4315 23.7841 45.8046L23.7758 45.7964Z" fill="#643A28"/>
<path d="M31.9169 15.8732C32.0241 15.9392 32.2139 16.1207 32.3376 16.0794C32.5273 16.0217 32.7006 15.8732 32.8573 15.7578L32.9975 15.8402L33.08 16.2032C32.1396 16.6403 30.9022 16.9455 29.8711 16.7475C30.0361 16.731 30.2011 16.731 30.3578 16.6733C30.9105 16.4588 31.4302 16.2032 31.9251 15.8815L31.9169 15.8732Z" fill="#643A28"/>
<path d="M44.7031 36.8719C44.8351 36.7646 44.9588 36.6244 45.0826 36.5007C45.3548 37.0781 45.5445 37.5729 45.5693 38.2245L44.7031 36.8636V36.8719Z" fill="#B4895A"/>
<path d="M45.5273 50.7534C45.8408 50.9925 46.2533 51.3554 46.311 51.7761C46.3275 51.9246 46.311 52.0813 46.311 52.2297V52.271C46.0718 52.007 45.7996 51.7678 45.5438 51.5204L45.7006 51.1575L45.5356 50.7534H45.5273Z" fill="#E8AE8A"/>
<path d="M15.0792 37.0537C15.0875 36.2041 15.5082 35.4536 16.1021 34.868C17.5045 33.4823 19.7648 32.6493 21.7199 32.6988C22.7758 32.7235 23.6749 33.0617 24.3926 33.8535C24.9123 34.4308 25.63 35.668 25.5392 36.4846C25.5227 36.6248 25.4815 36.7485 25.432 36.8805L25.3248 36.9134C25.0773 37.0042 24.8958 37.0454 24.7391 37.2681C24.6896 37.5073 24.7391 37.631 24.7968 37.8537C24.7473 37.9857 24.7061 38.0599 24.6236 38.1754C24.6978 38.8682 24.8793 39.9322 24.3596 40.493C24.1864 40.6745 23.9471 40.7487 23.7162 40.8312L23.4604 40.8724C23.0645 40.8807 22.5613 40.9466 22.1818 40.8477C22.0168 40.8064 22.0416 40.7734 21.9591 40.6332C21.0187 40.7734 20.235 40.8312 19.3111 40.559C19.0141 40.7487 18.7089 40.7569 18.3624 40.7899L18.2139 40.7487C16.8858 40.3858 15.6484 40.1713 14.9225 38.8929C14.5925 39.1156 13.4541 39.0579 12.9922 39.1239C13.4211 38.9672 13.8419 38.8022 14.2626 38.6372C14.5678 38.1341 14.8153 37.5815 15.071 37.0454L15.0792 37.0537Z" fill="#C5C4C4"/>
<path d="M18.841 36.3769C19.6164 35.9563 20.4001 35.6676 21.291 35.9315C21.9179 36.1212 22.4706 36.5419 22.8996 37.0285C23.1966 36.7563 23.4028 36.5501 23.8235 36.4924C24.0957 36.8718 24.302 37.2182 24.4917 37.6471V37.7873L24.6319 38.1832C24.7062 38.876 24.8877 39.94 24.368 40.5009C24.1947 40.6823 23.9555 40.7565 23.7245 40.839L23.4688 40.8803C23.0728 40.8885 22.5696 40.9545 22.1902 40.8555C22.0252 40.8143 22.0499 40.7813 21.9674 40.6411C21.027 40.7813 20.2433 40.839 19.3194 40.5668C18.7832 40.1957 18.3543 39.8245 18.1151 39.1977C17.8263 38.4554 17.9831 37.7543 18.2965 37.0533C18.4615 36.8141 18.6595 36.5996 18.8492 36.3687L18.841 36.3769Z" fill="url(#paint2_linear_95_353)"/>
<path d="M23.8229 36.5007C24.0951 36.8801 24.3013 37.2265 24.4911 37.6554V37.7956L24.6313 38.1915C24.7055 38.8843 24.887 39.9483 24.3673 40.5092C24.1941 40.6906 23.9549 40.7649 23.7239 40.8473L23.4682 40.8886C23.0722 40.8968 22.569 40.9628 22.1895 40.8638C22.0245 40.8226 22.0493 40.7896 21.9668 40.6494C22.7752 40.1298 23.0474 39.5194 23.2619 38.6204C23.1382 38.0266 23.2124 37.5977 22.899 37.0368C23.1959 36.7646 23.4022 36.5585 23.8229 36.5007Z" fill="white"/>
<path d="M23.8243 36.5007C24.0965 36.8801 24.3028 37.2265 24.4925 37.6554V37.7956C24.1708 37.7874 23.6511 37.6554 23.3871 37.8039C23.3129 38.0183 23.3046 38.1915 23.2964 38.4225C23.2964 38.5462 23.2964 38.4967 23.2634 38.6204C23.1396 38.0266 23.2139 37.5977 22.9004 37.0368C23.1974 36.7646 23.4036 36.5585 23.8243 36.5007Z" fill="#DBDBDC"/>
<path d="M19.1802 37.8535C19.0894 37.7133 19.0069 37.5813 18.9162 37.4411C18.9079 37.1937 18.9162 36.971 19.0812 36.7648C19.2297 36.5751 19.4029 36.4514 19.6504 36.4266C19.8566 36.4019 20.0793 36.4679 20.2361 36.5998C20.467 36.7813 20.4753 37.1112 20.5083 37.3834C20.5248 37.3669 20.5413 37.3422 20.566 37.3257C20.7558 37.1607 21.2425 37.0535 21.4899 37.103C21.7127 37.1525 21.8612 37.3009 21.9601 37.4906C22.1499 37.8783 22.0344 38.4474 21.8612 38.8185C21.7209 39.1237 21.4487 39.4784 21.1187 39.6021C20.8053 39.7175 20.4835 39.7093 20.1783 39.5608C19.7329 39.3381 19.2957 38.6618 19.1637 38.1999C19.1142 38.035 19.1142 38.0185 19.1802 37.8535Z" fill="#060404"/>
<path d="M19.1802 37.8535C19.0894 37.7133 19.0069 37.5813 18.9162 37.4411C18.9079 37.1937 18.9162 36.971 19.0812 36.7648C19.2297 36.5751 19.4029 36.4514 19.6504 36.4266C19.8566 36.4019 20.0793 36.4679 20.2361 36.5998C20.467 36.7813 20.4753 37.1112 20.5083 37.3834C20.3763 37.6308 20.2938 37.7628 20.0051 37.87C19.7494 37.9607 19.4276 37.8948 19.1719 37.8453L19.1802 37.8535Z" fill="white"/>
<path d="M15.0794 37.0537C15.0877 36.2041 15.5084 35.4536 16.1023 34.868C17.5047 33.4823 19.765 32.6493 21.7201 32.6988C22.7759 32.7235 23.6751 33.0617 24.3928 33.8535C24.9125 34.4308 25.6302 35.668 25.5394 36.4846C25.5229 36.6248 25.4817 36.7485 25.4322 36.8805L25.325 36.9134C25.0775 37.0042 24.896 37.0454 24.7393 37.2681C24.6898 37.5073 24.7393 37.631 24.797 37.8537C24.7475 37.9857 24.7063 38.0599 24.6238 38.1754L24.4753 37.7795V37.6393C24.2856 37.2186 24.0876 36.864 23.8071 36.4846C23.5679 36.2454 23.3369 35.9897 23.0647 35.7917C21.8355 34.8845 20.5404 34.7608 19.0721 34.9917C18.5936 34.8597 18.1976 35.0247 17.7274 34.9917C17.117 35.2474 16.5725 35.7835 15.9786 35.9732C15.6074 36.2619 15.3434 36.6743 15.0547 37.0454L15.0794 37.0537Z" fill="#EA9167"/>
<path d="M16.0039 35.9892C16.9361 34.9004 18.4127 34.2654 19.8315 34.1664C21.1762 34.0757 22.4135 34.4881 23.4282 35.3788C24.0386 35.9149 24.5666 36.55 24.5831 37.4078C24.5831 37.5563 24.5831 37.5068 24.5006 37.6552C24.3109 37.2346 24.1046 36.8799 23.8324 36.5005C23.5932 36.2613 23.3622 36.0057 23.09 35.8077C21.8608 34.9004 20.5657 34.7767 19.0974 35.0077C18.6189 34.8757 18.2229 35.0407 17.7527 35.0077C17.1423 35.2634 16.5978 35.7995 16.0039 35.9892Z" fill="#2B1107"/>
<path d="M15.7813 37.3421C16.5485 37.0782 17.2827 36.4926 18.0663 36.3277C18.3963 36.2617 18.5613 36.2122 18.85 36.3854C18.6603 36.6081 18.4706 36.8308 18.2973 37.07C17.9838 37.771 17.8271 38.4639 18.1158 39.2144C18.3633 39.8412 18.784 40.2124 19.3202 40.5836C19.0232 40.7733 18.718 40.7815 18.3716 40.8145L18.2231 40.7733C16.895 40.4104 15.6576 40.1959 14.9316 38.9175L15.0141 38.7938C15.2369 38.2907 15.4513 37.8123 15.7731 37.3586L15.7813 37.3421Z" fill="white"/>
<path d="M15.7808 37.3421C16.548 37.0782 17.2822 36.4926 18.0659 36.3277C18.3958 36.2617 18.5608 36.2122 18.8496 36.3854C18.6598 36.6081 18.4701 36.8308 18.2969 37.07C18.0741 36.9792 17.8926 37.004 17.6699 37.0865C16.8615 37.3999 15.9953 38.6288 15.4591 38.8103C15.3354 38.8515 15.1374 38.802 15.0137 38.7773C15.2364 38.2742 15.4509 37.7958 15.7726 37.3421H15.7808Z" fill="#DBDBDC"/>
<path d="M16.0042 35.9895C16.5982 35.7998 17.1426 35.2719 17.7531 35.008C18.2233 35.041 18.6192 34.876 19.0977 35.008C17.7201 35.5524 16.6394 36.0885 15.7815 37.3422C15.4598 37.7958 15.2453 38.2659 15.0226 38.7773L14.9401 38.901C14.6101 39.1237 13.4717 39.066 13.0098 39.1319C13.4387 38.9752 13.8594 38.8103 14.2801 38.6453C14.5854 38.1422 14.8328 37.5896 15.0886 37.0535C15.3773 36.6823 15.6413 36.2699 16.0125 35.9813L16.0042 35.9895Z" fill="#060404"/>
<path d="M24.9039 25.861C25.3494 26.1744 25.5474 26.5373 25.6629 27.0734C25.8196 27.7827 25.9268 29.1519 25.5061 29.7622C25.3824 29.9354 25.1184 29.9684 24.9204 29.9849C24.2358 30.0344 23.5263 29.8942 22.8416 29.8694C21.7692 29.8282 20.6308 29.9519 19.5749 30.1251C15.9783 30.719 13.7593 32.5417 11.6969 35.4285L11.334 35.9399C11.5567 33.647 12.1424 31.2551 13.685 29.4653C15.6071 27.2384 18.618 26.8507 21.3485 26.3971C22.2807 26.2404 23.2458 26.0177 24.1863 25.9352C24.343 26.0259 24.4585 26.0919 24.6482 26.1002L24.9122 25.861H24.9039Z" fill="#3C2116"/>
<path d="M36.5783 20.5414C36.8753 20.5332 37.1805 20.5414 37.4775 20.5827C39.8945 20.8548 42.3363 21.9848 43.8459 23.9065C42.7983 23.3787 41.6681 23.0405 40.5545 22.6694C37.4693 21.8363 35.6297 21.9848 32.5527 22.6034C32.6765 22.4467 32.8085 22.2982 32.9404 22.1415C33.9716 20.9621 35.0605 20.6321 36.5783 20.5414Z" fill="#EA9167"/>
<path d="M19.3196 40.5672C20.2435 40.8394 21.0272 40.7899 21.9676 40.6414C22.0501 40.7816 22.0253 40.8064 22.1903 40.8559C22.5698 40.9549 23.073 40.8889 23.4689 40.8806L23.7247 40.8394L23.9227 40.9878C23.8897 41.2518 23.7577 41.392 23.5432 41.5569C22.2976 42.5137 20.2188 42.7694 18.7009 42.5219C17.5625 42.3322 16.5066 41.8374 15.5332 41.227C16.5809 41.2518 17.6285 41.3425 18.6762 41.326C19.1959 41.326 19.7156 41.2105 20.227 41.2188C19.6083 41.0538 18.9896 40.9136 18.3627 40.8064C18.7092 40.7734 19.0144 40.7734 19.3113 40.5754L19.3196 40.5672Z" fill="#EA9167"/>
<path d="M19.3198 40.5672C20.2437 40.8394 21.0273 40.7899 21.9677 40.6414C22.0502 40.7816 22.0255 40.8064 22.1905 40.8559C22.5699 40.9549 23.0731 40.8889 23.4691 40.8806C22.4215 41.1198 21.3078 41.293 20.2354 41.2188C19.6167 41.0538 18.998 40.9136 18.3711 40.8064C18.7176 40.7734 19.0228 40.7734 19.3198 40.5754V40.5672Z" fill="#E8AE8A"/>
<path d="M27.4537 47.2067C27.1979 47.2562 27.0577 47.2562 26.8102 47.2067C26.67 47.1078 26.5627 47.0418 26.4967 46.8768C26.34 46.5139 26.4555 46.0273 26.604 45.6891C26.7772 45.3015 27.0907 44.9138 27.5114 44.7819C27.7671 44.6994 28.0641 44.7076 28.3033 44.8561C28.5838 45.0293 28.6498 45.2767 28.7075 45.5737C28.7653 45.9613 28.922 46.4892 28.6663 46.8273C28.4188 47.149 27.8331 47.1902 27.4537 47.215V47.2067Z" fill="#FBDCC7"/>
<path d="M28.707 45.5654C28.7648 45.9531 28.9215 46.4809 28.6658 46.8191C28.4183 47.1408 27.8326 47.182 27.4531 47.2067C28.0801 46.7119 28.4018 46.316 28.6988 45.5654H28.707Z" fill="#E8AE8A"/>
<path d="M26.8266 37.738C26.9916 38.0926 26.9999 38.4555 26.9916 38.835C26.9751 40.5835 26.4472 42.398 25.1768 43.6352L25.1355 43.594C25.1025 43.2723 26.1419 41.0124 26.3069 40.4598C26.5709 39.569 26.6946 38.6617 26.8266 37.738Z" fill="#EA9167"/>
<path d="M16.9352 2.48637C20.3256 1.66158 25.7289 1.36466 29.177 2.00799C31.9405 2.5276 35.001 3.62457 37.6572 4.58132C38.8781 5.01846 41.6663 5.96696 42.6727 6.66803C42.912 6.83299 42.912 7.22063 43.0522 7.46807C43.4152 8.10316 44.3638 8.39183 44.5536 9.15888L44.5041 9.31559L44.3803 9.37332C43.3657 8.43307 42.2108 7.82273 40.9487 7.28662C42.681 9.17538 44.1163 11.0064 44.6113 13.588C44.6938 14.0251 44.834 14.5942 44.7763 15.0314C44.7598 15.1798 44.7515 15.1881 44.702 15.3035L44.5783 15.3283C44.4463 14.9819 44.3721 14.6107 44.2153 14.2726C43.4152 12.4498 41.7241 10.6517 39.9752 9.69499C39.1421 9.24136 38.2264 8.9032 37.4427 8.38358C38.7791 10.9652 38.8946 12.5158 38.5151 15.3613H38.0614C36.4611 15.419 34.7122 15.5097 33.2191 16.1201L33.0624 16.1943L32.9799 15.8314L32.8397 15.7489C32.6829 15.8644 32.5097 16.0128 32.32 16.0706C32.1962 16.1118 32.0065 15.9304 31.8993 15.8644C31.4043 16.1861 30.8846 16.4417 30.3319 16.6562C30.1752 16.7139 30.0102 16.7222 29.8452 16.7304L29.309 16.516C29.6555 16.4252 30.0102 16.3923 30.3567 16.285C30.6206 16.2026 30.8269 16.0458 30.9424 15.7984C31.0413 15.584 31.1403 15.3695 31.2476 15.1633C31.2063 15.1551 31.1733 15.1468 31.1321 15.1386C30.9671 15.0891 30.9094 15.0149 30.7939 14.9076C30.6454 14.7674 30.4639 14.6684 30.3072 14.5282C29.7297 13.9756 29.3173 13.2003 28.7893 12.59C27.2302 10.7837 25.2834 9.20012 22.7921 9.30734C19.4759 9.43931 16.6052 12.2106 14.4934 14.5282C12.3816 16.8459 11.169 18.7099 8.33126 20.4255H8.18277C8.11678 20.2193 8.12503 20.178 8.18277 19.9636C8.66123 19.5099 9.24692 19.0563 9.59339 18.4955L9.57689 18.3305C9.38716 18.3305 9.4779 18.3058 9.33766 18.413C8.57049 18.9821 7.72082 19.2955 6.88765 19.7409C6.13697 20.1368 5.51828 20.7141 4.70161 20.9863C4.08291 21.1925 3.40648 21.2255 2.76304 21.3245C2.64755 21.341 2.69705 21.341 2.59806 21.3245C2.42482 21.7534 2.35883 22.3225 2.25984 22.7761L2.42482 23.007C2.82078 23.007 3.48072 22.6441 3.87668 22.4957C3.37348 22.7513 2.86203 22.9988 2.38358 23.3204C2.35883 23.3369 2.33408 23.3534 2.30933 23.3699C2.30933 22.339 2.39183 21.374 2.7053 20.3842C3.52197 17.7944 5.01508 15.8974 7.40735 14.6355C5.60077 15.0561 3.80244 15.2211 2.03711 14.5117C2.77129 14.2478 3.55496 14.0251 4.32214 13.8684C6.8629 12.9446 8.43025 11.2786 10.3523 9.48055C12.9673 7.03093 15.7885 5.10918 19.2945 4.20192C21.53 3.62457 23.4686 3.4926 25.7124 3.99572C22.9571 2.64307 19.9049 2.81628 16.9269 2.47812L16.9352 2.48637Z" fill="#643A28"/>
<path d="M21.8184 5.95082C22.734 5.8436 23.6249 5.92607 24.5324 5.99206C25.415 6.25599 26.4132 6.32197 27.3206 6.49518C28.1043 6.51992 28.8219 6.93231 29.5974 7.05603L30.3068 7.26223C31.2307 7.73236 32.1381 8.21073 33.0373 8.73035L33.4085 9.29945C33.7797 9.48915 34.0849 9.76133 34.4232 10.0088C36.007 11.1882 37.1866 12.4419 37.8053 14.3554C37.9126 14.6935 38.0116 15.0235 38.0776 15.3699C36.4772 15.4359 34.7284 15.5266 33.2353 16.1287C33.0538 15.741 32.9878 15.1802 32.8888 14.7595C32.5176 13.1924 32.1051 11.8315 31.14 10.5201C28.9374 7.53441 25.3325 6.49518 21.8184 5.95907V5.95082Z" fill="#2B1107"/>
<path d="M4.32258 13.8685C4.97427 14.2561 8.25745 13.4561 9.13187 13.2499C8.18321 14.3139 7.04482 14.9572 5.90643 15.782C4.19884 17.0274 3.0522 19.2956 2.59024 21.3163C2.41701 21.7452 2.35102 22.3143 2.25203 22.7679L2.41701 22.9989C2.81297 22.9989 3.47291 22.6359 3.86887 22.4875C3.36567 22.7432 2.85422 22.9906 2.37576 23.3123C2.35102 23.3288 2.32627 23.3453 2.30152 23.3618C2.30152 22.3308 2.38401 21.3658 2.69748 20.376C3.51416 17.7862 5.00726 15.8892 7.39953 14.6273C5.59296 15.0479 3.79463 15.2129 2.0293 14.5036C2.76348 14.2396 3.54715 14.0169 4.31433 13.8602L4.32258 13.8685Z" fill="#4B2C1E"/>
<path d="M53.4629 42.1422C53.7351 40.4266 53.7021 38.6121 54.4363 37.0038C54.692 36.4429 55.0632 35.8986 55.6737 35.6924C55.9789 35.5851 56.3996 35.5604 56.6883 35.7336C57.1586 36.0223 57.2988 36.5914 57.4638 37.0862C57.769 38.142 57.7937 39.2472 57.8432 40.3441C57.8845 41.3091 57.9505 42.2906 57.9092 43.2556C57.7855 45.9774 57.0761 49.2931 55.7727 51.6685C55.3355 52.4603 54.7828 52.9056 53.9414 53.2191C53.8589 52.2953 53.8506 51.3798 53.8506 50.456C53.7764 49.7055 53.7929 48.9467 53.7846 48.1961C53.7681 46.8435 53.5784 45.4661 53.7434 44.1217C53.7764 43.866 53.8011 43.6021 53.8341 43.3464C53.8919 43.1979 53.9001 43.1154 53.8836 42.9587L53.7434 42.9257C53.6939 43.1072 53.6196 43.5278 53.4876 43.635L53.4464 43.3216L53.5949 43.4041H53.4547C53.4217 43.0247 53.3392 42.4886 53.4794 42.1422H53.4629Z" fill="#EA9167"/>
<path d="M53.4638 42.1422C53.736 40.4266 53.703 38.6121 54.4372 37.0038C54.6929 36.4429 55.0641 35.8986 55.6746 35.6924C55.9798 35.5851 56.4005 35.5604 56.6892 35.7336C57.1594 36.0223 57.2996 36.5914 57.4646 37.0862C57.3739 37.243 57.3904 37.2842 57.2089 37.3419C57.2749 37.5729 57.2749 37.6059 57.1594 37.8286C57.1017 37.944 57.0027 38.0595 56.9202 38.1667C56.3592 38.4471 56.087 38.9255 55.7488 39.4286H55.6416C55.4683 39.2389 55.4931 39.0657 55.4518 38.8183C55.0724 39.3297 54.7424 39.8493 54.4537 40.4101C54.1732 40.9627 53.934 41.7793 53.538 42.2412L53.4473 42.1339L53.4638 42.1422Z" fill="url(#paint3_linear_95_353)"/>
<path d="M57.2083 37.342C57.2742 37.5729 57.2742 37.6059 57.1588 37.8286C57.101 37.9441 57.002 38.0595 56.9195 38.1668C56.3586 38.4472 56.0864 38.9256 55.7481 39.4287H55.6409C55.4677 39.239 55.4924 39.0658 55.4512 38.8183C55.9791 38.1668 56.4081 37.6719 57.1917 37.342H57.2083Z" fill="#643A28"/>
<path d="M53.8257 43.3549L54.0154 43.7425L54.1309 43.759C54.2051 43.5611 54.2794 43.3714 54.3866 43.1817L54.4609 43.058C54.7166 43.8415 55.1208 44.6003 55.3023 45.3921C55.261 46.3489 54.7496 48.0067 54.0402 48.6748L53.8999 48.7077C53.8339 48.5345 53.8009 48.3861 53.7762 48.2046C53.7597 46.852 53.57 45.4746 53.7349 44.1302C53.7679 43.8745 53.7927 43.6106 53.8257 43.3549Z" fill="#EA9167"/>
<path d="M53.4633 42.1425L53.5541 42.2497C53.95 41.7878 54.1893 40.9713 54.4697 40.4186C54.7585 39.8495 55.0884 39.3382 55.4679 38.8268C55.5009 39.0742 55.4844 39.2392 55.6576 39.4289H55.7649L55.7401 39.5114C55.4349 40.13 54.4202 41.7301 54.61 42.3816C54.9234 43.1899 55.3194 44.023 55.5421 44.856C55.5421 45.0704 55.5586 45.2766 55.5421 45.4911C55.3689 45.4746 55.4514 45.4993 55.3029 45.4004C55.1214 44.6003 54.7172 43.8415 54.4615 43.0662L54.3872 43.1899C54.2883 43.3714 54.214 43.5693 54.1315 43.7673L54.016 43.7508L53.8263 43.3631C53.884 43.2147 53.8923 43.1322 53.8758 42.9755L53.7356 42.9425C53.6861 43.1239 53.6118 43.5446 53.4798 43.6518L53.4386 43.3384L53.5871 43.4209H53.4468C53.4138 43.0415 53.3313 42.5054 53.4716 42.1589L53.4633 42.1425Z" fill="#643A28"/>
<path d="M55.5412 44.856C55.8051 45.9447 55.7144 47.4046 55.1287 48.3696C54.9555 48.6582 54.675 49.0541 54.3285 49.1366C54.2708 49.1531 54.213 49.1614 54.1553 49.1696C54.1058 49.1778 54.0481 49.1943 53.9986 49.2108L53.8913 49.2356C53.8253 49.648 53.8583 50.0521 53.8336 50.4728C53.7593 49.7222 53.7758 48.9634 53.7676 48.2129C53.7923 48.3943 53.8171 48.5428 53.8913 48.716L54.0316 48.683C54.7327 48.0149 55.2442 46.3571 55.2937 45.4003C55.4504 45.5076 55.3679 45.4746 55.5329 45.4911C55.5577 45.2766 55.5494 45.0704 55.5329 44.856H55.5412Z" fill="#68462A"/>
<path d="M56.9277 38.1672C56.8534 39.2807 57.1504 42.2004 56.9607 42.918L56.8204 42.8932C56.705 42.6046 56.771 42.3076 56.7627 42.0025C56.7627 41.7633 56.6307 41.5653 56.6142 41.3344C56.5812 40.7488 56.8204 40.1879 56.3832 39.7013C56.1688 39.6353 55.9543 39.5694 55.748 39.5116L55.7728 39.4374C56.111 38.926 56.375 38.4559 56.9442 38.1755L56.9277 38.1672Z" fill="#D08163"/>
<path d="M6.53383 53.7801C6.07187 53.4172 5.45318 53.0378 5.14796 52.5182C3.83634 50.2418 2.95367 46.5632 2.75569 43.9487C2.66495 42.728 2.73919 41.4991 2.78869 40.2784C2.82168 39.3876 2.78869 38.4226 3.02791 37.5566C3.1434 37.1442 3.38263 36.6246 3.80334 36.4431C4.33954 36.2039 4.99123 36.4761 5.46968 36.707C6.12137 37.9195 6.47608 39.2639 6.71531 40.6083L6.83905 42.5713C7.02053 43.0826 6.94629 44.0229 6.8473 44.559C6.8473 44.8889 6.8803 45.2353 6.8308 45.557C6.74831 46.654 6.63282 47.7592 6.61632 48.8644V49.3923C6.61632 50.8521 6.55033 52.312 6.54208 53.7719L6.53383 53.7801Z" fill="#F8BC91"/>
<path d="M5.85674 42.4723C6.17846 43.1817 6.50843 43.8745 6.85489 44.5673C6.85489 44.8972 6.88789 45.2436 6.83839 45.5653C6.7559 46.6623 6.64041 47.7675 6.62391 48.8727V49.4005C6.3022 49.3511 6.00522 49.2521 5.69175 49.1531C4.75134 47.9077 4.59461 46.786 4.71835 45.2766C4.94932 44.9632 5.05656 44.1219 5.2133 43.7178C5.38653 43.2724 5.62576 42.8682 5.87324 42.4641L5.85674 42.4723Z" fill="#D08163"/>
<path d="M6.60791 48.8728C6.35219 48.5759 6.07996 48.279 5.86548 47.949C5.64276 47.6109 5.51077 47.1985 5.61801 46.7861C5.76649 46.2005 6.33569 45.8458 6.83064 45.5654C6.74815 46.6624 6.63266 47.7676 6.61616 48.8728H6.60791Z" fill="#E8AE8A"/>
<path d="M3.39062 38.6532C4.54551 39.7914 5.13946 41.0286 5.85714 42.4637C5.60966 42.8679 5.37044 43.272 5.1972 43.7174C5.04047 44.1216 4.93323 44.9628 4.70225 45.2763L4.61976 45.1195L4.57851 45.7711C3.75359 44.9628 3.46487 39.8822 3.39062 38.6532Z" fill="#EA9167"/>
<path d="M3.39062 38.6532V38.381C3.6876 38.3398 4.03406 38.5872 4.26504 38.7687C5.01572 39.3625 5.63441 40.3605 6.07162 41.1935C6.20361 41.4492 6.61607 42.6864 6.78105 42.7606L6.84705 42.5874C7.02853 43.0988 6.95428 44.0391 6.85529 44.5752C6.50883 43.8823 6.17886 43.1813 5.85714 42.4802C5.13946 41.0368 4.54551 39.8079 3.39062 38.6697V38.6532Z" fill="#643A28"/>
<path d="M5.28653 23.0818C6.1197 22.9169 8.53672 22.4055 9.29565 22.5127L9.34514 22.6612L9.22965 22.8509C8.7017 24.8139 8.99043 26.8264 8.72645 28.8141C8.57797 29.9523 8.04177 30.9338 7.7448 32.0225C7.40658 33.2679 7.30759 35.6928 7.36533 37.0372C7.34883 37.6723 7.31584 38.2991 7.26634 38.9342C6.82913 37.9445 6.58991 36.9218 6.34243 35.8743C6.41667 35.3959 5.73199 31.9813 5.6165 31.1235C5.45976 29.8038 5.32778 28.4759 5.22054 27.1563C5.08855 25.8036 5.22054 24.4345 5.28653 23.0818Z" fill="#643A28"/>
<path d="M5.28697 23.0818C6.12014 22.9169 8.53716 22.4055 9.29608 22.5127L9.34558 22.6612L9.23009 22.8509C8.37217 22.9334 6.29337 25.0613 5.71593 25.7706C5.5097 26.0181 5.4602 26.216 5.39421 26.5212C5.34471 26.7356 5.29522 26.9501 5.21272 27.1563C5.08074 25.8036 5.21272 24.4345 5.27872 23.0818H5.28697Z" fill="#3C2116"/>
<path d="M5.46962 36.715V36.6325C5.6676 36.715 5.85734 37.0779 5.98107 37.2676L6.09656 37.2098C6.18731 37.2263 6.2863 37.2346 6.37704 37.2428C6.50902 36.8552 6.22855 36.418 6.30279 36.0057C6.30279 35.9644 6.31929 35.9149 6.32754 35.8737C6.57502 36.9212 6.81425 37.9439 7.25145 38.9336C7.30095 38.2986 7.33395 37.6717 7.35044 37.0366C7.50718 37.5398 7.52368 38.2243 7.39994 38.7357L7.28445 38.8759C7.11122 38.8594 7.13596 38.9007 7.06172 38.8017C6.96273 38.6615 6.91324 38.5048 6.84724 38.3398C6.61626 38.414 6.61626 38.447 6.48428 38.6532C6.54202 39.346 6.83074 39.9151 6.69876 40.6162C6.45953 39.2718 6.10481 37.9192 5.45312 36.715H5.46962Z" fill="url(#paint4_linear_95_353)"/>
<defs>
<linearGradient id="paint0_linear_95_353" x1="20.7055" y1="0.589769" x2="38.04" y2="71.4649" gradientUnits="userSpaceOnUse">
<stop/>
<stop offset="1" stop-color="#1E1009"/>
</linearGradient>
<linearGradient id="paint1_linear_95_353" x1="6.36889" y1="61.8385" x2="53.9174" y2="61.8385" gradientUnits="userSpaceOnUse">
<stop/>
<stop offset="1" stop-color="#1E1009"/>
</linearGradient>
<linearGradient id="paint2_linear_95_353" x1="20.9693" y1="35.8656" x2="21.5836" y2="40.505" gradientUnits="userSpaceOnUse">
<stop stop-color="#3A2519"/>
<stop offset="1" stop-color="#704D3C"/>
</linearGradient>
<linearGradient id="paint3_linear_95_353" x1="55.7859" y1="41.1483" x2="54.7056" y2="35.9892" gradientUnits="userSpaceOnUse">
<stop stop-color="#E39E77"/>
<stop offset="1" stop-color="#FDBD8F"/>
</linearGradient>
<linearGradient id="paint4_linear_95_353" x1="6.2368" y1="37.4449" x2="6.70277" y2="38.2491" gradientUnits="userSpaceOnUse">
<stop stop-color="#120300"/>
<stop offset="1" stop-color="#290E0B"/>
</linearGradient>
</defs>
</svg>
