<svg width="25" height="24" viewBox="0 0 25 24" fill="none" xmlns="http://www.w3.org/2000/svg">
<path d="M10.873 2.55178C12.3151 1.1519 14.6088 1.1519 16.051 2.55178C16.7309 3.21176 17.6373 3.58717 18.5847 3.60127C20.5944 3.63119 22.2162 5.25308 22.2462 7.26271C22.2603 8.21018 22.6357 9.11649 23.2957 9.79642C24.6955 11.2386 24.6955 13.5323 23.2957 14.9745C22.6357 15.6544 22.2603 16.5607 22.2462 17.5082C22.2162 19.5178 20.5944 21.1397 18.5847 21.1696C17.6373 21.1837 16.7309 21.5591 16.051 22.2191C14.6088 23.619 12.3151 23.619 10.873 22.2191C10.193 21.5591 9.28671 21.1837 8.33925 21.1696C6.32961 21.1397 4.70772 19.5178 4.67781 17.5082C4.66371 16.5607 4.2883 15.6544 3.62831 14.9745C2.22844 13.5323 2.22844 11.2386 3.62832 9.79642C4.2883 9.11649 4.66371 8.21018 4.67781 7.26271C4.70772 5.25308 6.32961 3.63119 8.33925 3.60127C9.28671 3.58717 10.193 3.21176 10.873 2.55178Z" fill="white"/>
<path fill-rule="evenodd" clip-rule="evenodd" d="M17.8781 10.5637C18.2157 10.1953 18.1908 9.62301 17.8225 9.28536C17.4541 8.94772 16.8818 8.9726 16.5442 9.34094L12.2066 14.0729L10.6129 12.4792C10.2595 12.1258 9.68668 12.1258 9.33335 12.4792C8.98003 12.8325 8.98003 13.4054 9.33335 13.7587L11.5952 16.0206C11.7697 16.1951 12.0079 16.2907 12.2546 16.2853C12.5014 16.28 12.7352 16.1741 12.9019 15.9922L17.8781 10.5637Z" fill="#010A34"/>
</svg>
