<svg width="422" height="257" viewBox="0 0 422 257" fill="none" xmlns="http://www.w3.org/2000/svg">
<g clip-path="url(#clip0_106_1612)">
<path fill-rule="evenodd" clip-rule="evenodd" d="M154.851 89.5475C154.827 85.2264 145.255 80.3671 141.166 77.8619C133.082 72.9069 124.673 68.3312 116.343 63.6824C108.012 59.0336 99.6593 54.3974 91.7156 49.2936C86.5578 45.9806 80.4973 42.2492 76.9993 37.5185C69.5474 27.4371 93.0426 28.9342 99.1285 28.7136C114.611 28.1503 132.37 28.4074 146.882 23.1575C155.545 20.0234 159 14.7672 157.139 7.1066C156.54 4.61523 154.764 1.74832 156.268 -0.678788C157.874 -3.27098 161.568 -4.7668 164.635 -5.7699C175.819 -9.42442 188.677 -9.84785 200.51 -10.3066C213.27 -10.8106 226.15 -10.6632 238.819 -10.7022C244.192 -10.7186 249.802 -12.3405 254.918 -13.6586C261.625 -15.3863 268.252 -17.327 274.903 -19.2034C289.536 -23.3217 304.613 -27.6592 320.094 -28.7052C329.789 -29.3605 340.385 -28.4746 347.917 -22.7748C351.698 -19.9129 353.677 -15.6585 355.863 -11.8793C358.51 -7.31362 361.051 -2.70389 363.869 1.7899C372.944 16.2631 385.902 30.4061 406.934 31.1168C410.115 31.2239 413.24 30.8749 416.407 30.8093C418.423 30.769 420.218 31.1786 420.968 32.9516C422.853 37.3988 416.929 44.4193 414.5 47.9478C409.181 55.6714 403.184 63.0485 397.566 70.6171C393.849 75.6226 387.415 82.4628 387.347 88.5444C387.287 93.9632 395.864 97.8798 400.533 100.549C404.908 103.048 412.835 106.545 413.315 111.628C413.547 114.093 411.613 116.136 409.594 117.721C406.054 120.494 401.975 122.45 398.791 125.613C393.568 130.802 389.205 137.942 389.914 144.935C390.406 149.78 393.696 152.953 397.88 155.987C399.639 157.262 401.067 158.164 401.16 160.235C401.31 163.523 399.777 167.002 398.515 170.05C393.999 180.96 387.584 191.509 380.449 201.358C376.883 206.28 373.031 211.188 368.304 215.387C365.208 218.144 361.032 221.425 356.309 221.422C350.841 221.422 345.054 219.763 339.739 218.523C329.812 216.206 320.004 213.526 310.236 210.778C287.645 204.419 265.267 197.545 243.101 190.156C227.489 184.943 211.544 179.722 196.865 172.791C194.003 171.43 191.301 169.843 188.796 168.052C186.119 166.17 182.798 165.328 179.431 164.701C158.529 160.806 135.631 163.796 114.643 165.671C109.315 166.146 103.988 166.624 98.6457 166.957C94.0531 167.243 88.5549 168.063 84.0913 166.831C75.296 164.405 82.9848 155.464 86.2354 151.821C97.6801 138.993 112.446 128.141 126.132 117.061C132.64 111.785 139.196 106.522 145.35 100.947C148.554 98.0487 154.872 93.3356 154.851 89.5475Z" stroke="black" stroke-opacity="0.07" stroke-width="0.232639"/>
<path fill-rule="evenodd" clip-rule="evenodd" d="M158.792 88.8191C155.284 84.2467 149.13 80.8671 144.021 77.6865C136.669 73.1078 129.086 68.7835 121.617 64.3346C114.554 60.1274 107.477 55.8724 100.937 51.0947C96.9486 48.1812 91.9448 44.697 90.0558 40.3879C85.9582 31.0478 108.002 32.4648 113.444 32.2205C126.973 31.6159 142.312 31.4773 154.828 26.5597C162.644 23.4888 165.855 18.3961 164.188 11.3259C163.612 8.87968 162.573 6.79122 163.888 4.35763C165.407 1.54112 168.903 -0.214798 172.108 -1.45427C182.147 -5.33768 194.014 -6.16273 204.897 -6.84922C216.139 -7.55839 227.853 -8.05847 238.734 -7.5395C243.085 -7.33293 248.093 -8.50563 252.399 -9.405C259.025 -10.7906 265.583 -12.3891 272.176 -13.8754C285.575 -16.8985 299.321 -19.8107 313.26 -20.142C323.323 -20.3813 333.816 -19.0839 342.188 -14.0694C350.673 -8.98429 354.437 -1.10158 359.142 6.39192C367.269 19.3471 378.244 35.0987 397.044 37.8359C399.895 38.2516 402.635 38.0261 405.482 38.1281C406.947 38.1798 408.614 38.3435 409.356 39.5565C411.284 42.7056 406.001 48.4633 404.224 50.8755C399.311 57.5414 393.788 63.8811 388.64 70.4185C384.552 75.6094 379.369 81.3772 377.788 87.5305C375.869 94.9975 388.408 100.311 392.817 105.568C400.462 114.685 385.979 119.88 378.838 124.227C370.639 129.218 363.87 138.322 371.221 146.044C374.032 148.996 377.492 150.756 378.748 154.609C380.712 160.635 379.227 167.522 377.633 173.478C375.233 182.433 371.434 191.291 366.269 199.384C362.569 205.178 356.431 214.264 347.442 213.582C341.391 213.127 335.24 211.466 329.347 209.997C320.525 207.799 311.814 205.294 303.149 202.691C283.147 196.701 263.366 190.095 243.973 182.83C230.741 177.871 193.831 157.605 191.054 156.882C182.773 154.728 173.358 155.107 164.821 155.441C153.464 155.884 142.165 157.033 130.874 158.097C125.5 158.601 120.098 159.217 114.695 159.465C110.85 159.641 105.799 159.793 102.431 157.914C95.8563 154.25 103.181 145.866 106.211 142.319C115.491 131.445 127.23 122.028 138.237 112.399C143.638 107.672 149.122 102.952 154.025 97.8455C156.003 95.7835 160.96 91.6432 158.792 88.8191Z" stroke="black" stroke-opacity="0.07" stroke-width="0.232639"/>
<path fill-rule="evenodd" clip-rule="evenodd" d="M163.648 86.4741C154.068 77.3241 140.845 70.519 129.433 62.8773C123.706 59.0406 117.942 55.0994 113.002 50.5295C110.432 48.1532 107.223 45.1481 106.728 41.8357C105.405 32.9743 125.273 34.1725 131.22 33.8361C142.717 33.1834 155.706 32.6883 166.137 28.1662C172.509 25.4018 175.648 20.8646 174.457 14.9012C173.929 12.2552 173.107 10.0074 174.457 7.40937C175.825 4.77728 178.675 2.92008 181.562 1.5278C189.856 -2.4764 200.164 -3.75654 209.502 -4.71035C220.458 -5.82128 231.495 -6.25504 242.526 -6.00812C252.187 -5.79518 261.802 -8.1904 271.235 -9.76915C283.731 -11.8595 296.454 -13.6851 309.242 -13.4092C319.341 -13.19 329.52 -11.4676 338.154 -6.89011C346.927 -2.2282 352.201 4.74955 356.957 12.2792C364.146 23.6618 373.105 38.9151 388.876 43.238C391.17 43.868 393.308 43.9373 395.674 44.0469C396.823 44.0999 398.306 44.1162 398.876 45.123C400.248 47.5471 395.178 52.2469 393.764 53.8848C389.248 59.1137 384.353 64.107 379.725 69.2666C375.405 74.0835 370.698 79.1032 368.015 84.7479C363.744 93.7378 377.398 98.9945 377.016 107.561C376.777 112.879 370.715 116.693 365.914 119.332C360.004 122.576 351.493 124.709 348.535 130.63C346.331 135.04 349.789 137.606 352.452 140.953C356.964 146.623 357.272 154.309 356.802 160.872C356.169 169.741 353.695 178.741 349.484 186.893C347.576 190.588 345.239 194.433 341.797 197.303C338.574 199.993 335.522 200.682 331.214 200.131C318.024 198.443 304.707 193.737 292.059 189.534C276.168 184.252 260.495 178.421 245.291 171.86C234.923 167.386 224.321 162.652 215.221 156.471C212.849 154.859 210.421 153.108 208.686 150.982C207.375 149.385 206.819 148.065 204.609 147.153C198.059 144.451 188.948 145.157 181.931 145.438C170.709 145.886 159.542 147.076 148.39 148.149C141.882 148.779 129.622 150.761 124.426 146.007C119.94 141.902 125.353 134.903 128.118 131.286C135.111 122.141 144.108 114.115 152.455 105.851C156.28 102.064 160.256 98.2473 163.415 94.0365C164.222 92.963 165.516 91.5404 165.738 90.2364C165.987 88.742 164.824 87.6018 163.648 86.4741Z" stroke="black" stroke-opacity="0.07" stroke-width="0.232639"/>
<path fill-rule="evenodd" clip-rule="evenodd" d="M164.474 88.6041C155.622 80.5139 144.957 73.8674 135.453 66.2967C131.192 62.9022 126.889 59.3413 123.642 55.2004C121.896 52.9735 120.041 50.1704 120.523 47.4027C121.905 39.4587 138.246 40.1762 144.847 39.7109C154.657 39.0275 165.926 38.339 174.6 34.0556C180.282 31.25 182.413 27.1065 181.352 21.7626C180.213 16.0303 182.76 11.8692 188.554 8.67147C195.819 4.66545 204.99 3.03252 213.425 1.87245C223.588 0.481469 233.879 -0.135121 244.174 0.0302057C254.186 0.191608 263.887 -1.21813 273.833 -2.13484C287.02 -3.34913 300.63 -3.94808 313.668 -1.45897C325.021 0.708596 335.274 5.48506 342.961 12.8717C350.99 20.5811 354.964 30.2942 361.483 38.8232C365.55 44.1431 371.22 51.1805 378.818 53.2484C381.352 53.9382 385.97 53.0076 383.946 56.4008C382.789 58.3414 380.624 60.0437 378.914 61.6299C376.15 64.1934 373.295 66.6863 370.484 69.2145C364.495 74.6038 358.081 80.1078 353.591 86.4895C347.935 94.5242 356.343 100.708 355.318 108.855C354.768 113.239 351.14 116.738 347.302 119.487C344.818 121.268 342.101 122.81 339.327 124.248C336.43 125.752 333.001 126.896 330.475 128.84C326.874 131.605 328.437 134.878 329.112 138.453C330.301 144.735 330.562 151.117 329.889 157.453C329.067 165.219 327.139 173.207 323.078 180.265C321.498 183.012 319.496 185.925 316.524 187.767C313.551 189.61 310.477 189.484 307.071 188.929C296.969 187.289 286.888 183.475 277.305 179.86C265.31 175.334 253.552 170.277 242.323 164.523C234.572 160.551 226.795 156.26 220.31 150.875C218.424 149.307 216.63 147.629 215.179 145.755C214.183 144.47 213.648 142.812 212.205 141.846C207.689 138.831 198.622 139.732 193.325 139.907C182.755 140.256 172.351 141.917 161.794 142.32C156.033 142.541 147.009 143.096 142.778 138.974C138.799 135.099 142.403 128.996 144.781 125.262C149.455 117.921 155.734 111.381 161.362 104.556C163.676 101.748 166.212 98.8102 167.71 95.6036C169.043 92.7463 166.743 90.6783 164.474 88.6041Z" stroke="black" stroke-opacity="0.07" stroke-width="0.232639"/>
<path fill-rule="evenodd" clip-rule="evenodd" d="M166.65 88.7364C159.603 81.6172 151.109 75.2976 144.012 68.0626C139.857 63.8256 132.703 56.7027 135.916 50.7293C139.441 44.1654 151.727 43.9866 158.828 43.4578C167.281 42.8282 177.207 41.9682 184.441 37.8697C186.728 36.5741 188.677 34.8591 189.503 32.6002C190.388 30.1827 189.421 28.0673 189.295 25.6473C189.031 20.5704 192.638 16.4946 197.412 13.6955C204.158 9.73805 212.594 7.86697 220.562 6.56251C229.59 5.09121 238.767 4.36584 247.963 4.39679C256.751 4.42197 265.447 4.25829 274.244 4.06942C285.749 3.81759 297.416 4.22429 308.576 6.79167C319.569 9.32254 329.564 14.0657 337.416 21.0426C345.075 27.8508 350.243 36.1724 354.769 44.6489C357.337 49.4601 361.676 56.6498 367.801 59.0799C370.526 60.1615 373.199 60.0872 370.302 62.9001C366.655 66.4421 361.739 69.284 357.514 72.3135C351.42 76.6852 345.173 81.1425 340.057 86.3403C336.791 89.6593 335.335 92.8802 335.56 97.1777C335.734 100.451 336.522 103.691 336.123 106.978C335.189 114.691 327.959 119.981 321.566 124.906C317.454 128.074 313.698 130.491 311.582 134.997C309.078 140.323 308.027 146.118 306.354 151.648C304.516 157.721 302.393 164.038 298.381 169.387C294.81 174.149 290.467 176.284 283.966 175.001C273.827 173.002 263.834 168.076 254.832 163.519C245.671 158.883 236.667 153.67 229.075 147.298C224.976 143.856 222.178 139.816 218.538 136.119C213.96 131.478 203.602 133.236 197.446 133.628C187.228 134.281 155.074 139.161 158.041 123.354C159.28 116.756 164.156 110.667 167.723 104.845C169.201 102.428 171.341 99.5285 171.675 96.7596C172.039 93.744 168.768 90.8794 166.65 88.7364Z" stroke="black" stroke-opacity="0.07" stroke-width="0.232639"/>
<path fill-rule="evenodd" clip-rule="evenodd" d="M170.371 89.341C164.986 82.8896 158.542 76.7947 153.922 69.8268C150.925 65.3142 147.981 59.2848 151.848 54.5102C156.212 49.1221 165.835 47.866 172.905 47.1794C180.19 46.4727 188.887 45.8781 194.841 41.7926C196.735 40.4912 198.297 38.7363 198.587 36.635C198.867 34.6193 198.076 32.6036 198.338 30.5514C198.926 25.9431 202.251 22.1461 206.539 19.3922C219.222 11.2451 238.099 9.43347 253.401 9.22057C261.061 9.11475 268.943 9.67032 276.652 10.0684C286.656 10.5849 296.674 11.6935 306.214 14.3656C326.498 20.0447 340.094 32.6402 349.589 48.3133C352.578 53.2466 354.864 58.5844 359.548 62.5489C361.962 64.5961 361.434 66.0663 358.966 67.9333C355.107 70.851 350.4 73.0808 346.117 75.516C340.025 78.9792 333.803 82.494 328.415 86.6425C324.702 89.5023 322.065 92.2574 321.265 96.5458C320.694 99.6033 320.828 102.719 320.484 105.795C319.831 111.639 317.594 117.439 313.633 122.287C310.486 126.13 306.739 129.622 302.866 132.951C297.833 137.286 293.575 141.691 289.752 146.836C284.684 153.646 277.562 166.209 265.624 162.884C252.457 159.216 240.116 149.894 231.668 140.863C228.831 137.831 226.502 134.112 222.676 131.875C216.948 128.533 211.137 128.65 204.324 128.664C194.124 128.683 171.93 130.544 171.69 117.704C171.595 112.617 174.215 107.807 175.469 102.914C176.884 97.4339 174.049 93.7377 170.371 89.341Z" stroke="black" stroke-opacity="0.07" stroke-width="0.232639"/>
<path fill-rule="evenodd" clip-rule="evenodd" d="M174.383 89.9161C169.057 81.5078 157.113 67.6912 166.197 58.3413C170.995 53.4 179.482 51.5431 186.602 50.4365C192.331 49.5414 199.241 49.2053 203.57 45.411C206.751 42.6212 205.339 38.5612 206.558 35.069C208.071 30.7396 211.544 27.197 215.811 24.5344C227.736 17.093 244.317 14.8093 258.663 14.3233C273.561 13.8198 289.977 16.1752 303.997 20.706C321.478 26.3573 334.574 37.0581 343.733 50.609C345.423 53.1105 346.958 55.6774 348.581 58.2091C349.671 59.9073 351.287 61.5502 352.147 63.3366C353.577 66.3152 351.892 68.75 349.19 70.6912C345.303 73.486 340.529 75.4751 336.098 77.5724C330.039 80.4427 323.844 83.2614 318.208 86.629C314.42 88.8951 310.456 91.3361 309.1 95.2677C308.175 97.9492 307.983 100.789 308.016 103.566C308.088 109.521 307.716 114.336 304.408 119.79C298.965 128.743 290.595 136.794 281.753 143.493C274.813 148.75 263.833 156.917 253.722 153.402C244.65 150.255 239.344 142.721 233.367 136.631C230.461 133.67 227.197 130.965 223.361 128.859C218.525 126.204 213.973 125.09 208.243 124.656C198.6 123.924 184.06 123.734 181.079 114.015C179.979 110.429 180.607 106.714 180.03 103.081C179.275 98.2765 177.07 94.1573 174.383 89.9161Z" stroke="black" stroke-opacity="0.07" stroke-width="0.232639"/>
<path fill-rule="evenodd" clip-rule="evenodd" d="M179.919 90.2275C176.127 81.0272 171.144 69.4324 180.304 61.2554C184.741 57.2943 190.983 55.0799 197.023 53.4251C201.349 52.2392 208.218 51.8901 210.87 48.244C212.819 45.5608 213.088 41.8592 214.85 38.9844C217.272 35.0321 220.94 31.7767 225.244 29.2283C236.456 22.5878 251.058 20.0218 264.375 19.287C293.311 17.6927 322.753 30.3904 338.237 51.2813C342.854 57.5085 348.813 64.1365 341.352 70.4986C333.207 77.4391 320.935 80.6907 311.213 85.6223C307.499 87.5053 302.765 89.7688 300.692 93.1779C299.446 95.2272 299.36 97.7982 299.303 100.054C299.154 105.8 298.586 110.967 295.836 116.329C291.589 124.614 284.818 132.258 277.144 138.519C270.452 143.979 260.908 150.395 251.189 146.459C243.737 143.434 239.01 137.014 233.22 132.282C226.777 127.011 218.808 123.459 210.057 121.724C201.544 120.04 192.207 118.905 187.72 111.751C186.181 109.297 184.574 106.12 183.997 103.404C183.065 98.9261 181.702 94.5193 179.919 90.2275Z" stroke="black" stroke-opacity="0.07" stroke-width="0.232639"/>
<path fill-rule="evenodd" clip-rule="evenodd" d="M186.094 90.2923C184.34 81.002 184.145 71.3148 192.297 63.9926C196.101 60.5767 200.911 58.1498 205.774 55.951C209.352 54.3331 213.048 52.9685 215.72 50.3161C218.196 47.8602 220.078 45.0088 222.468 42.4887C225.622 39.149 229.395 36.258 233.642 33.9266C244.29 28.0939 257.242 25.3659 269.634 24.4196C275.632 23.9597 282.139 23.7202 288.097 24.974C293.852 26.1836 299.541 28.0964 304.832 30.3267C316.079 35.0632 325.827 41.9998 332.894 50.7697C337.739 56.7852 340.359 62.6343 334.084 68.7367C327.01 75.6153 315.919 79.4106 306.777 83.8749C300.507 86.9368 293.48 89.9383 292.308 96.4452C291.376 101.623 290.618 106.537 288.205 111.431C284.614 118.65 279.334 125.189 272.678 130.661C266.591 135.645 258.89 139.875 250.183 137.213C243.285 135.1 237.933 130.366 231.906 126.981C225.189 123.201 217.809 121.117 210.038 119.441C203.054 117.929 196.478 115.605 191.964 110.672C191.04 109.664 190.07 108.567 189.358 107.439C188.449 106 188.519 104.574 188.341 102.961C187.876 98.7044 186.888 94.4971 186.094 90.2923Z" stroke="black" stroke-opacity="0.07" stroke-width="0.232639"/>
<path fill-rule="evenodd" clip-rule="evenodd" d="M192.903 89.533C193.053 80.7086 195.579 72.3687 202.497 65.4917C205.454 62.5498 208.986 60.1266 212.24 57.4308C214.86 55.2575 217.336 53.2382 220.349 51.4473C227.496 47.2067 233.305 41.7192 240.9 37.9431C251.039 32.8948 262.652 30.1044 274.176 28.9887C279.803 28.4435 285.616 28.2529 291.309 28.8688C296.199 29.3976 300.882 31.2541 305.226 33.1535C313.74 36.8741 322.006 42.1622 327.535 48.8525C339.723 63.6024 315.693 74.3262 303.36 80.6063C297.687 83.4952 289.021 86.841 286.697 92.5632C285.036 96.6511 284.025 100.808 281.886 104.77C276.14 115.409 264.477 127.923 248.934 126.257C242.283 125.545 236.221 122.654 230.013 120.713C223.62 118.713 217.021 117.599 210.377 116.376C204.166 115.234 199.217 113.608 195.206 109.25C193.288 107.169 193.458 104.678 193.287 102.125C193.008 97.9308 192.836 93.713 192.903 89.533Z" stroke="black" stroke-opacity="0.07" stroke-width="0.232639"/>
<path fill-rule="evenodd" clip-rule="evenodd" d="M199.103 88.4026C201.6 75.0829 210.873 60.5416 224.51 52.8062C240.55 43.7068 257.927 36.0445 277.091 33.8417C285.976 32.8203 295.709 32.3178 304.093 35.6578C310.474 38.1981 317.885 41.9952 321.397 47.3352C329.988 60.3967 310.879 70.7945 299.992 76.8373C294.131 80.0904 286.67 83.2603 282.252 88.0109C279.689 90.7653 278.38 94.4088 276.311 97.4339C270.04 106.601 259.717 113.995 246.858 115.318C240.913 115.929 234.924 115.173 229.023 114.572C222.983 113.958 216.868 113.624 210.866 112.766C206.074 112.081 200.428 110.921 198.663 106.613C196.437 101.183 198.084 93.842 199.103 88.4026Z" stroke="black" stroke-opacity="0.07" stroke-width="0.232639"/>
<path fill-rule="evenodd" clip-rule="evenodd" d="M205.181 86.263C208.822 73.7402 216.534 61.525 229.498 54.0492C236.373 50.085 244.353 47.3485 252.015 44.6448C260.7 41.5806 269.775 39.2021 279.043 38.0223C290.582 36.5526 309.272 35.2278 315.301 46.2759C321.285 57.2419 306.163 66.9475 297.221 72.4785C291.488 76.0217 285.353 79.2737 279.875 83.1471C276.905 85.247 274.617 87.6734 272.103 90.1364C265.156 96.9606 255.253 102.363 245.158 105.247C235.375 108.043 223.272 109.28 212.945 108.356C208.489 107.959 205.304 106.62 203.956 102.81C202.089 97.5152 203.675 91.4359 205.181 86.263Z" stroke="black" stroke-opacity="0.07" stroke-width="0.232639"/>
<path fill-rule="evenodd" clip-rule="evenodd" d="M211.224 82.8901C214.841 71.8643 222.645 61.7937 234.027 55.1762C246.786 47.7579 263.215 43.6357 278.315 41.5395C286.341 40.4261 303.735 37.4074 307.826 46.047C311.917 54.6867 300.09 63.2008 293.283 67.8878C285.022 73.5676 276.114 79.0517 267.217 84.1478C259.487 88.5788 251.239 93.1088 242.867 96.5305C238.145 98.4717 233.226 100.057 228.168 101.266C224.423 102.155 219.661 103.481 215.734 102.819C205.831 101.148 209.493 88.162 211.224 82.8901Z" stroke="black" stroke-opacity="0.07" stroke-width="0.232639"/>
<path fill-rule="evenodd" clip-rule="evenodd" d="M218.682 79.5886C226.619 58.7374 251.769 48.4825 275.984 44.908C281.61 44.0783 297.384 41.0868 300.529 47.4564C303.577 53.632 293.884 60.9559 289.346 64.4258C275.284 75.1781 257.911 83.1504 241.448 91.0484C236.31 93.5137 227.042 98.8634 220.668 96.3956C213.747 93.7113 217.037 83.9121 218.682 79.5886Z" stroke="black" stroke-opacity="0.07" stroke-width="0.232639"/>
<path fill-rule="evenodd" clip-rule="evenodd" d="M226.813 75.5751C233.716 60.2198 253.794 51.413 272.254 48.5097C276.776 47.7993 288.259 45.5875 291.683 49.8725C294.853 53.8364 287.29 59.58 284.46 61.8623C278.161 66.9446 270.696 71.1314 263.321 75.1557C256.502 78.879 249.61 82.6954 242.435 85.8443C238.655 87.5019 231.567 91.0388 227.273 88.4793C222.649 85.7259 225.28 78.9848 226.813 75.5751Z" stroke="black" stroke-opacity="0.07" stroke-width="0.232639"/>
<path fill-rule="evenodd" clip-rule="evenodd" d="M235.774 71.0889C241.035 61.0613 255.127 54.5497 267.557 52.3859C270.902 51.8049 278.131 50.2977 280.952 52.9757C283.55 55.4419 279.363 59.0575 277.505 60.7273C269.271 68.1287 257.212 74.7398 246.163 78.8003C243.385 79.821 238.391 81.8248 235.533 79.7643C232.602 77.6484 234.565 73.3914 235.774 71.0889Z" stroke="black" stroke-opacity="0.07" stroke-width="0.232639"/>
<path fill-rule="evenodd" clip-rule="evenodd" d="M245.273 66.8767C248.237 61.8974 255.986 58.1407 262.405 56.9448C266.922 56.1039 272.352 56.8303 268.415 61.1646C264.504 65.4659 257.248 69.3944 251.097 71.136C246.405 72.4642 242.727 71.1538 245.273 66.8767Z" stroke="black" stroke-opacity="0.07" stroke-width="0.232639"/>
<path fill-rule="evenodd" clip-rule="evenodd" d="M4.85677 101.364C4.66662 91.5269 -1.55444 81.3031 1.5179 71.2794C4.04076 63.047 16.7419 62.3597 24.3614 58.6299C30.4162 55.6667 33.8524 50.4176 37.1269 45.3812C40.069 40.8597 42.7116 36.2022 45.8109 31.7549C47.8172 28.8799 51.2624 23.2342 55.6134 23.1323C59.7787 23.0341 63.5982 27.4335 66.0177 30.0342C69.1724 33.4241 71.9693 37.038 75.0326 40.4821C80.1951 46.2913 86.3892 50.5913 93.4817 54.661C101.553 59.2916 109.757 63.764 118.095 68.0783C124.234 71.2643 130.414 74.4263 136.315 77.927C140.016 80.1236 148.185 84.2448 148.223 88.2943C148.24 90.2265 146.062 92.3665 144.593 93.911C142.108 96.5255 139.275 98.9159 136.433 101.255C131.14 105.611 125.623 109.77 120.166 113.98C113.082 119.443 106.316 124.817 100.089 131.019C93.6509 137.438 87.5002 144.07 81.2237 150.61C76.9731 155.041 72.7269 160.017 66.5956 162.736C58.9163 166.135 52.6129 162.551 44.8467 162.51C38.166 162.473 38.6586 149.462 37.8096 145.845C36.9577 142.183 35.0801 138.774 34.3525 135.103C33.4452 130.521 33.4332 125.834 33.2101 121.203C32.9391 115.538 32.8313 110.145 25.628 107.985C21.5286 106.758 17.0937 106.5 12.8506 105.765C10.1016 105.288 4.91666 104.472 4.85677 101.364Z" stroke="black" stroke-opacity="0.07" stroke-width="0.232639"/>
<path fill-rule="evenodd" clip-rule="evenodd" d="M8.14253 99.6141C7.44226 91.368 3.3051 80.8135 7.21733 72.3013C10.5597 65.0272 21.0129 64.0842 28.0516 60.2631C33.8622 57.1113 36.4488 51.9539 39.3534 46.8872C41.6837 42.8227 43.9434 38.7192 46.5886 34.7846C48.5379 31.885 51.5145 26.9898 55.5677 26.3897C59.2115 25.8501 63.1192 30.1718 65.1645 32.3704C68.1486 35.5801 70.7007 39.0659 73.3369 42.4786C77.9689 48.4731 82.7118 53.8638 89.4911 58.2674C96.3004 62.6899 103.75 65.9967 111.279 69.4383C117.169 72.1312 123.029 74.9021 128.625 78.011C132.794 80.3256 138.788 83.2882 140.695 87.4157C142.205 90.6809 134.547 96.0993 132.289 98.0118C127.64 101.944 122.714 105.635 117.779 109.304C111.763 113.774 105.555 117.683 100.243 122.783C90.7402 131.9 82.7973 143.254 70.5703 150.03C63.1957 154.117 54.9888 155.162 46.7865 154.551C43.5386 154.309 42.7588 150.455 42.3494 148.207C41.6687 144.473 41.5832 140.675 41.0599 136.925C40.5695 133.416 39.4809 130.081 38.6037 126.639C37.7159 123.152 37.467 119.58 36.8132 116.069C36.4084 113.889 36.008 111.352 34.2371 109.6C32.4047 107.786 29.3816 107.026 26.7395 106.448C21.7776 105.374 8.63737 105.433 8.14253 99.6141Z" stroke="black" stroke-opacity="0.07" stroke-width="0.232639"/>
<path fill-rule="evenodd" clip-rule="evenodd" d="M12.3694 96.1622C11.1917 88.5929 9.54293 79.1652 14.3408 72.1914C18.2625 66.4892 26.6264 65.2591 32.6005 61.5437C37.5693 58.454 39.4462 53.54 41.9126 48.9734C43.9364 45.2278 45.9708 41.4658 48.4237 37.9015C50.284 35.1983 52.6815 31.5332 56.3751 30.5902C59.5332 29.7844 63.1008 33.3941 64.8516 35.1908C67.8326 38.2527 70.263 41.6836 72.677 45.0692C76.6256 50.6089 80.2593 56.5264 85.8793 61.0325C91.3402 65.4052 97.8273 67.9862 104.436 70.8883C109.498 73.1117 114.528 75.4208 119.298 78.0723C122.96 80.1069 127.498 82.518 129.406 85.9036C131.057 88.8233 126.82 92.2793 124.703 94.3391C121.207 97.7385 117.328 100.857 113.502 103.988C109.373 107.366 104.801 110.483 100.805 113.944C92.4039 121.227 85.6917 129.291 75.3369 134.871C68.6307 138.486 59.6067 141.77 51.6793 141.179C45.9783 140.754 46.3534 130.15 45.8058 126.762C44.9056 121.222 43.1668 115.402 40.4048 110.299C38.0329 105.926 32.3964 104.578 27.2115 103.597C23.9635 102.981 20.5594 102.649 17.4178 101.697C13.7812 100.594 12.863 99.335 12.3694 96.1622Z" stroke="black" stroke-opacity="0.07" stroke-width="0.232639"/>
<path fill-rule="evenodd" clip-rule="evenodd" d="M16.3113 92.6143C15.6101 86.2148 15.7678 78.6473 20.3099 73.1115C24.2905 68.2626 31.3777 66.986 36.4184 63.1662C40.3524 60.1862 41.8975 55.3272 44.0132 51.3862C46.5988 46.5677 50.222 37.668 56.7447 35.8547C62.8124 34.169 69.1579 44.9375 71.3546 48.1486C74.8322 53.2311 77.7406 58.8048 81.9584 63.4983C85.5906 67.539 90.4571 69.7728 95.6224 72.1732C102.208 75.2391 112.207 78.8745 115.728 84.8498C118.353 89.3021 109.818 95.9213 106.903 99.0062C103.855 102.229 101.559 106.048 98.4137 109.157C93.4497 114.063 85.406 118.013 78.7647 121.027C72.3081 123.959 63.9235 127.204 56.599 127.011C51.7851 126.885 50.8692 120.637 49.8421 117.585C48.3706 113.246 46.4141 109.358 42.2113 106.407C37.9334 103.403 32.8913 101.987 27.5909 100.749C24.8701 100.117 21.7664 99.6249 19.3324 98.3496C16.6432 96.9618 16.5816 95.0741 16.3113 92.6143Z" stroke="black" stroke-opacity="0.07" stroke-width="0.232639"/>
<path fill-rule="evenodd" clip-rule="evenodd" d="M21.1114 88.9254C21.1503 83.3967 22.6545 77.5011 27.1146 73.2364C30.8293 69.6843 36.6438 68.4968 40.1999 64.8655C43.0166 61.9906 44.4505 57.9546 46.3363 54.616C48.6426 50.5248 51.9039 43.3777 57.6391 41.9579C63.2366 40.5757 68.1876 48.4478 70.3338 51.5627C73.4768 56.1302 76.0211 60.9715 79.1926 65.5264C81.677 69.1 84.7153 71.4032 88.7608 73.7064C93.5097 76.4117 100.135 79.4085 102.672 83.8842C104.501 87.1248 100.074 92.3029 98.4666 95.1577C97.389 97.0752 96.4027 99.0228 95.8609 101.101C95.4389 102.719 95.397 104.217 94.1742 105.607C91.0956 109.103 84.3456 109.559 79.7658 110.711C73.6833 112.24 67.2297 113.978 60.8644 114.31C56.9521 114.517 54.9556 111.487 52.7225 109.356C50.0839 106.837 46.3482 105.025 43.0855 103.124C38.7796 100.611 34.0935 99.0479 29.2458 97.4471C27.0592 96.7246 24.4909 96.0159 22.7967 94.5797C21.0276 93.0907 21.098 90.9207 21.1114 88.9254Z" stroke="black" stroke-opacity="0.07" stroke-width="0.232639"/>
<path fill-rule="evenodd" clip-rule="evenodd" d="M26.1608 85.6435C26.9338 81.0002 29.3429 76.5622 33.412 73.2797C36.5313 70.7596 40.6738 69.3407 43.1772 66.3128C45.5099 63.4902 47.1355 60.2808 49.0621 57.263C51.1012 54.0725 54.1305 48.7399 58.8334 47.8717C63.9017 46.9367 67.806 52.3159 69.9679 55.2973C72.6991 59.0649 74.7741 63.1185 77.2162 67.0159C79.0559 69.9208 81.4027 72.5775 84.1783 74.8976C87.0893 77.3434 91.037 79.6859 92.5097 83.049C93.8117 86.0278 91.3756 89.6316 90.9456 92.652C90.4857 95.879 91.2917 99.2686 88.7418 102.04C83.4831 107.754 70.2855 106.694 62.7406 106.816C55.2961 106.942 49.3108 103.446 43.2866 100.119C39.3074 97.9229 35.1634 96.063 31.0838 94.0167C26.9248 91.9287 25.4806 89.7299 26.1608 85.6435Z" stroke="black" stroke-opacity="0.07" stroke-width="0.232639"/>
<path fill-rule="evenodd" clip-rule="evenodd" d="M30.8504 82.9855C33.1365 76.2587 40.2767 72.6833 45.3811 67.5997C49.5576 63.438 52.6892 54.8194 59.723 53.6793C67.7087 52.3854 72.4894 63.805 75.2657 68.2114C78.3463 73.0983 83.833 77.0734 86.1147 82.2465C87.314 84.9617 86.2841 87.4953 85.6455 90.2093C84.9454 93.1894 84.4192 96.2363 82.0026 98.6349C77.246 103.355 67.9561 103.323 61.2656 103.452C54.3398 103.587 48.2129 100.353 42.6947 97.1241C36.8423 93.7052 28.5088 89.8839 30.8504 82.9855Z" stroke="black" stroke-opacity="0.07" stroke-width="0.232639"/>
<path fill-rule="evenodd" clip-rule="evenodd" d="M34.6787 81.1617C37.2548 76.369 42.6681 72.4726 47.0606 68.7944C50.7269 65.728 54.671 59.5551 60.261 59.115C66.8309 58.596 70.8128 65.1877 73.3979 69.2295C75.9422 73.201 79.6084 77.3945 81.0173 81.7534C82.4865 86.2941 78.5741 92.4094 74.8429 95.6225C70.6814 99.2054 63.8728 100.529 58.0307 100.386C51.9137 100.241 46.3011 97.2798 41.6685 94.2084C36.7157 90.9251 31.6829 86.7254 34.6787 81.1617Z" stroke="black" stroke-opacity="0.07" stroke-width="0.232639"/>
<path fill-rule="evenodd" clip-rule="evenodd" d="M38.2287 80.2594C40.6893 76.2731 44.9546 72.901 48.8875 69.8932C51.9225 67.571 56.4009 63.6224 60.7796 63.5257C65.5966 63.419 69.6791 66.7333 71.5941 70.1305C73.4819 73.4813 75.471 77.6823 75.7536 81.3583C76.3673 89.3635 63.8736 98.3306 54.4919 97.6009C45.597 96.9089 33.3225 88.2017 38.2287 80.2594Z" stroke="black" stroke-opacity="0.07" stroke-width="0.232639"/>
<path fill-rule="evenodd" clip-rule="evenodd" d="M41.5186 79.8199C44.9132 74.6261 53.1588 67.2217 60.7925 67.0459C69.5547 66.8449 71.7543 75.0846 70.6122 81.0558C69.452 87.1502 59.3497 95.9714 51.2945 94.7794C43.4327 93.6163 37.4955 85.9795 41.5186 79.8199Z" stroke="black" stroke-opacity="0.07" stroke-width="0.232639"/>
<path fill-rule="evenodd" clip-rule="evenodd" d="M44.9864 78.98C47.8605 74.6314 53.9936 69.1996 60.3903 69.0352C68.0122 68.8407 67.8684 75.7973 66.14 80.1271C64.3428 84.6226 56.4274 92.3008 49.7536 91.0884C43.2641 89.905 42.2321 83.1479 44.9864 78.98Z" stroke="black" stroke-opacity="0.07" stroke-width="0.232639"/>
<path fill-rule="evenodd" clip-rule="evenodd" d="M48.0086 78.4793C49.9057 75.3764 54.6537 71.4546 59.1674 71.3291C64.6845 71.1782 63.612 76.6959 62.1866 79.359C60.4922 82.5279 54.8129 88.0341 50.0469 87.1417C45.3544 86.2633 46.4434 81.036 48.0086 78.4793Z" stroke="black" stroke-opacity="0.07" stroke-width="0.232639"/>
<path fill-rule="evenodd" clip-rule="evenodd" d="M307.539 255.772C295.328 261.997 281.523 267.136 268.505 272.359C249.481 279.991 230.177 287.418 210.188 293.104C199.47 296.151 185.583 300.544 174.084 298.157C169.879 297.284 166.045 294.645 162.275 292.93C157.077 290.565 151.803 288.317 146.537 286.065C135.974 281.549 125.379 277.079 114.997 272.274C109.998 269.959 105.148 267.044 99.9438 265.07C96.9026 263.915 93.2633 264.455 90.0137 264.528C82.4862 264.698 74.9633 265.021 67.4403 265.295C58.2386 265.63 49.0159 265.986 39.8037 265.854C35.6487 265.794 25.4727 266.413 23.1854 263.406C21.9548 261.787 24.8552 258.867 26.1997 257.516C28.6684 255.032 31.5058 252.795 34.3057 250.58C40.7809 245.457 47.6579 240.579 53.4136 234.857C56.371 231.916 60.2456 228.322 58.315 224.306C56.3665 220.25 52.9909 216.738 50.9315 212.696C48.5602 208.045 47.5769 203.204 46.4573 198.272C45.6284 194.627 43.6978 191.397 41.8826 188.036C39.8771 184.321 37.7996 180.575 36.4071 176.657C35.4868 174.07 34.0014 169.414 37.2211 167.776C41.7957 165.447 50.3739 167.333 55.5885 168.019C62.7952 168.966 69.9494 170.173 77.1366 171.211C82.3543 171.967 87.5899 172.795 92.8945 172.884C101.446 173.026 110.025 172.534 118.554 172.075C134.346 171.226 150.026 170.076 165.871 170.076C179.754 170.076 211.835 183.571 219.344 185.947C234.333 190.69 249.721 195.187 263.905 201.498C267.742 203.207 273.648 205.484 275.667 209.001C276.912 211.168 276.34 212.421 279.278 213.817C283.286 215.722 288.421 216.47 292.858 217.323C300.003 218.695 307.204 219.857 314.382 221.1C328.9 223.607 343.319 226.443 357.778 229.172C362.149 229.997 367.437 230.179 371.604 231.632C374.29 232.566 374.011 233.74 371.932 235.158C368.285 237.646 363.174 239.028 358.866 240.447C352.554 242.526 346.139 244.381 339.721 246.209C333.302 248.038 326.851 249.809 320.43 251.641C316.188 252.848 311.351 253.829 307.539 255.772Z" stroke="black" stroke-opacity="0.07" stroke-width="0.232639"/>
<path fill-rule="evenodd" clip-rule="evenodd" d="M297.49 254.402C284.573 260.64 270.235 265.61 256.412 270.459C238.721 276.668 220.63 282.487 201.99 286.369C191.046 288.646 178.133 291.161 166.951 288.549C162.961 287.617 159.981 285.523 156.561 283.674C152.663 281.564 148.615 279.631 144.567 277.728C136.235 273.812 127.814 270.029 119.305 266.379C114.799 264.438 109.838 261.84 104.746 261.166C100.699 260.63 96.1005 261.406 92.0346 261.631C84.7124 262.038 77.3918 262.456 70.0666 262.812C61.614 263.222 53.1374 263.6 44.6668 263.534C39.9458 263.498 31.841 264.102 28.5023 261.538C25.5893 259.301 36.1947 251.21 38.0598 249.673C43.8842 244.874 50.01 240.304 55.4312 235.172C58.635 232.145 62.536 228.464 63.8868 224.453C65.0367 221.034 62.8179 217.139 61.5075 213.979C59.8689 210.021 58.5466 205.917 56.6426 202.042C54.947 198.589 52.2484 195.514 49.8781 192.375C47.271 188.922 44.6308 185.413 42.6953 181.646C41.5095 179.329 39.547 175.447 41.9038 173.238C44.6263 170.691 53.019 172.355 56.4687 172.718C63.467 173.465 70.4114 174.575 77.3618 175.568C88.9057 177.218 99.9115 178.66 111.667 178.315C126.975 177.863 142.269 176.802 157.574 176.214C163.226 175.994 168.968 175.553 174.625 175.791C177.868 175.929 180.337 176.761 182.223 178.639C184.799 181.201 190.731 182.62 194.857 184.09C201.29 186.381 207.804 188.513 214.3 190.671C228.561 195.413 243.096 199.983 256.62 206.115C260.899 208.055 265.798 210.217 268.963 213.421C270.729 215.208 270.284 216.93 271.362 218.829C272.789 221.327 277.482 222.454 280.287 223.271C285.701 224.85 291.336 225.908 296.928 226.899C309.582 229.141 322.265 230.615 335.124 231.701C338.137 231.953 350.004 232.827 343.771 237.039C336.885 241.694 326.943 243.975 318.836 246.598C311.534 248.956 304.225 251.15 297.49 254.402Z" stroke="black" stroke-opacity="0.07" stroke-width="0.232639"/>
<path fill-rule="evenodd" clip-rule="evenodd" d="M279.641 253.249C267.499 258.737 254.049 262.831 240.972 266.748C225.104 271.501 208.838 275.738 192.195 278.111C181.74 279.6 170.214 280.745 159.83 278.269C152.738 276.58 147.253 272.012 141.024 268.87C134.796 265.727 128.315 262.777 121.641 260.318C117.499 258.792 113.043 257.255 108.434 257.456C97.2269 257.945 86.0337 259.109 74.8149 259.675C67.3933 260.052 59.9567 260.363 52.5126 260.27C48.0236 260.215 41.8567 260.442 37.8825 258.457C33.4896 256.263 56.88 237.526 59.0907 235.417C64.6333 230.129 71.345 223.111 70.2734 215.591C69.2484 208.402 64.8059 203.034 59.7811 197.401C56.9295 194.197 47.785 185.637 51.1739 181.469C53.1099 179.087 59.4915 179.912 62.5231 180.074C68.4979 180.394 74.4397 181.082 80.383 181.678C89.0488 182.543 97.9533 183.879 106.657 184.271C112.717 184.543 118.813 184.179 124.884 184.171C133.589 184.161 142.294 184.217 150.999 184.282C158.308 184.338 165.678 184.282 172.962 184.871C177.49 185.234 180.927 186.049 184.175 188.35C187.001 190.352 191.264 191.524 194.866 192.797C200.816 194.898 206.843 196.846 212.851 198.825C225.429 202.97 238.152 207.028 250.192 212.208C255.688 214.571 264.928 217.88 266.217 223.61C266.683 225.676 267.025 226.568 269.426 227.743C272.835 229.41 276.917 230.162 280.741 230.815C289.656 232.338 298.829 232.111 307.729 233.616C311.353 234.237 316.086 235.577 311.948 238.644C307.12 242.231 300.091 244.202 294.307 246.418C291.419 247.524 288.445 248.559 285.703 249.908C283.597 250.948 281.795 252.282 279.641 253.249Z" stroke="black" stroke-opacity="0.07" stroke-width="0.232639"/>
<path fill-rule="evenodd" clip-rule="evenodd" d="M256.642 251.535C245.424 255.993 233.242 259.234 221.278 262.155C207.99 265.396 194.381 268.08 180.592 269.223C171.07 270.014 160.926 270.247 151.685 267.826C145.841 266.293 141.879 263.071 136.85 260.369C129.26 256.285 121.049 253.05 111.931 253.837C101.708 254.718 91.4522 255.379 81.1628 255.82C74.9561 256.086 68.7255 256.285 62.5114 256.1C58.5825 255.984 53.5207 255.788 50.1027 254.293C45.5294 252.29 62.7077 237.049 64.849 234.828C70.1596 229.319 74.0526 223.539 76.3272 216.714C78.1823 211.144 74.3927 206.766 70.4832 202.6C68.0527 200.013 60.1993 193.506 62.6583 190.147C64.0069 188.294 68.4513 188.39 70.8384 188.295C75.3877 188.116 79.9565 188.303 84.5058 188.385C91.2234 188.511 98.3741 187.644 105.035 188.342C119.796 189.887 134.52 191.224 149.373 192.283C157.56 192.866 165.797 193.396 173.912 194.521C176.825 194.925 179.833 195.352 182.594 196.266C184.369 196.853 185.337 197.853 186.836 198.673C193.98 202.578 203.307 204.587 211.354 207.09C222.051 210.416 232.806 213.691 243.218 217.621C248.695 219.689 256.345 222.064 260.113 226.283C261.252 227.557 260.767 228.577 261.483 229.803C262.307 231.216 264.811 231.638 266.428 232.031C270.098 232.926 285.458 234.279 278.38 239.528C275.002 242.028 270.699 243.632 266.891 245.597C265.512 246.309 264.168 247.024 263.019 247.985C261.096 249.595 259.202 250.514 256.642 251.535Z" stroke="black" stroke-opacity="0.07" stroke-width="0.232639"/>
<path fill-rule="evenodd" clip-rule="evenodd" d="M232.141 249.605C209.997 256.817 184.044 261.73 159.901 260.778C151.872 260.461 143.233 259.4 136.274 255.772C132.17 253.628 128.891 251.209 123.961 250.435C120.402 249.876 116.57 250.51 112.991 250.74C107.806 251.073 102.618 251.37 97.4258 251.611C90.9887 251.905 84.5305 252.132 78.0814 252.011C73.4732 251.924 67.1096 252.022 63.1065 249.942C58.3271 247.461 70.4926 235.821 72.2044 233.747C76.3531 228.72 79.2616 223.85 80.3127 217.792C80.622 216.026 81.6641 214.217 81.529 212.438C81.3878 210.621 80.0559 209.004 78.8262 207.575C77.218 205.703 71.6383 201.263 73.2359 198.979C74.1188 197.719 77.4327 197.56 79.1505 197.292C82.3728 196.788 85.6417 196.517 88.8835 196.116C94.3837 195.433 99.8448 193.207 105.364 193.27C120.207 193.437 135.265 197.305 149.81 199.429C158.458 200.697 167.164 201.846 175.706 203.562C178.409 204.106 181.192 204.668 183.762 205.59C185.554 206.233 186.706 207.379 188.367 208.099C194.735 210.864 202.058 212.542 208.896 214.403C217.773 216.823 226.68 219.171 235.496 221.748C241.021 223.363 248.127 224.784 252.888 227.78C256.366 229.967 253.989 230.621 252.154 232.659C251.217 233.698 251.433 234.721 251.026 235.898C250.445 237.577 248.803 238.786 247.262 239.873C245.137 241.375 242.307 242.612 240.57 244.452C239.957 245.1 239.985 245.905 239.49 246.47C238.048 248.115 234.224 248.927 232.141 249.605Z" stroke="black" stroke-opacity="0.07" stroke-width="0.232639"/>
<path fill-rule="evenodd" clip-rule="evenodd" d="M208.595 247.036C190.622 251.57 170.624 254.152 151.625 252.954C145.015 252.536 138.365 251.566 132.208 249.436C129.406 248.47 127.303 247.393 124.234 247.335C117.111 247.201 109.966 247.669 102.845 247.781C97.7485 247.862 92.6268 247.891 87.5427 247.547C84.1432 247.317 79.5462 247.042 76.7613 245.29C72.7143 242.739 80.0198 234.066 81.5067 231.669C83.9709 227.695 86.4155 223.277 85.4382 218.679C85.1385 217.272 84.6079 216.03 84.5389 214.596C84.473 213.364 84.6573 212.226 84.1372 211.048C83.4942 209.588 80.6344 207.321 81.6176 205.977C82.2876 205.059 84.2751 205.016 85.5971 204.722C87.7413 204.245 89.8349 203.62 91.8564 202.853C93.9848 202.041 95.7969 200.786 98.0018 200.115C101.581 199.028 105.588 198.925 109.35 198.93C124.361 198.951 139.562 201.439 154.193 204.041C161.812 205.395 169.472 206.84 176.877 208.894C179.125 209.518 181.673 210.145 183.65 211.298C184.884 212.016 185.72 212.915 187.122 213.455C199.093 218.063 212.934 219.775 225.643 223.103C228.951 223.969 247.283 228.347 237.698 232.465C231.875 234.967 225.722 236.105 220.409 239.528C218.79 240.568 217.711 241.43 217.078 243.018C216.661 244.075 217.664 243.539 216.264 244.643C214.566 245.971 210.688 246.507 208.595 247.036Z" stroke="black" stroke-opacity="0.07" stroke-width="0.232639"/>
<path fill-rule="evenodd" clip-rule="evenodd" d="M189.908 244.355C168.865 248.056 146.582 248.232 125.207 244.951C119.819 244.125 114.211 244.322 108.757 244.112C103.457 243.911 94.0345 244.33 90.1853 240.905C87.3942 238.423 90.4227 233.148 91.4703 230.371C92.805 226.834 93.9714 223.179 91.78 219.744C90.4964 217.732 88.7379 215.817 87.3611 213.823C86.7028 212.872 85.347 211.413 85.9122 210.511C86.8471 209.024 91.2208 208.397 93.3431 207.696C100.126 205.453 107.309 204.881 114.561 204.897C127.956 204.927 141.42 206.466 154.56 208.553C160.605 209.514 166.734 210.539 172.564 212.209C175.863 213.153 178.297 214.975 181.447 216.056C191.591 219.536 202.489 221.396 212.808 224.579C215.794 225.501 226.95 228.569 221.33 232.187C215.889 235.689 207.953 235.273 202.295 238.568C201.655 238.945 200.863 239.396 200.492 240.006C200.272 240.371 200.659 241.065 200.492 241.273C198.754 243.527 192.578 243.886 189.908 244.355Z" stroke="black" stroke-opacity="0.07" stroke-width="0.232639"/>
<path fill-rule="evenodd" clip-rule="evenodd" d="M176.27 241.909C165.475 243.153 154.442 243.461 143.465 243.54C137.465 243.583 130.873 243.904 125.002 242.627C121.395 241.84 117.912 241.153 114.195 240.657C110.195 240.123 103.754 239.735 101.318 236.844C99.4984 234.683 100.746 230.241 100.812 227.614C100.882 224.732 100.179 222.596 97.7583 220.533C96.2361 219.235 89.2532 214.521 90.0601 213.162C90.828 211.868 95.6937 211.669 97.7974 211.333C104.447 210.266 111.185 209.894 117.948 209.952C128.423 210.041 138.938 210.938 149.249 212.481C153.512 213.122 157.918 213.786 161.99 215.066C164.733 215.93 167.02 217.461 169.744 218.354C177.546 220.914 185.796 222.652 193.625 225.26C196.137 226.098 204.324 228.329 202.361 231.768C200.725 234.64 195.159 235.514 192.424 237.438C187.772 240.72 182.203 241.226 176.27 241.909Z" stroke="black" stroke-opacity="0.07" stroke-width="0.232639"/>
<path fill-rule="evenodd" clip-rule="evenodd" d="M169.472 240.259C160.909 241.082 152.146 241.443 143.457 241.46C137.849 241.471 131.933 241.536 126.43 240.477C123.666 239.945 121.264 238.702 118.648 237.815C115.954 236.904 112.237 235.886 111.072 233.795C109.978 231.831 110.387 228.964 109.426 226.595C108.572 224.493 106.783 223.195 104.857 221.774C103.63 220.866 97.3277 216.936 98.0565 216.068C98.8377 215.139 102.623 215.214 104.592 215.086C110.018 214.726 115.464 214.611 120.905 214.742C128.331 214.933 135.814 215.467 143.111 216.676C148.288 217.533 152.193 219.573 157.019 221.069C163.272 223.012 169.749 224.549 175.942 226.675C179.028 227.734 183.595 229.097 185.176 231.831C185.783 232.879 186.373 235.543 185.697 236.591C184.884 237.851 181.859 238.385 180.432 238.708C176.855 239.516 173.112 239.909 169.472 240.259Z" stroke="black" stroke-opacity="0.07" stroke-width="0.232639"/>
</g>
<defs>
<clipPath id="clip0_106_1612">
<rect width="420.667" height="256" fill="white" transform="translate(0.666016 0.841064)"/>
</clipPath>
</defs>
</svg>
